<svg id="metodologia-lean" enable-background="new 0 0 256 256" height="512" viewBox="0 0 256 256" width="512" xmlns="http://www.w3.org/2000/svg"><path d="m229.81 16.75h-203.62c-5.352 0-9.69 4.339-9.69 9.69v20.056c0 5.352 4.339 9.69 9.69 9.69h203.62c5.352 0 9.69-4.339 9.69-9.69v-20.056c0-5.351-4.339-9.69-9.69-9.69z" fill="#ed6e7a"/><path d="m229.81 15.25h-175.438c-.829 0-1.5.671-1.5 1.5s.671 1.5 1.5 1.5h175.438c4.516 0 8.19 3.674 8.19 8.19v20.056c0 4.516-3.674 8.19-8.19 8.19h-203.62c-4.516 0-8.19-3.674-8.19-8.19v-20.056c0-4.516 3.674-8.19 8.19-8.19h14.438c.829 0 1.5-.671 1.5-1.5s-.671-1.5-1.5-1.5h-14.438c-6.17 0-11.19 5.02-11.19 11.19v20.056c0 6.17 5.02 11.19 11.19 11.19h203.62c6.17 0 11.19-5.02 11.19-11.19v-20.056c0-6.17-5.02-11.19-11.19-11.19z" fill="#3a312a"/><path d="m229.81 108.282h-203.62c-5.352 0-9.69 4.339-9.69 9.69v20.056c0 5.352 4.339 9.69 9.69 9.69h203.62c5.352 0 9.69-4.339 9.69-9.69v-20.056c0-5.352-4.339-9.69-9.69-9.69z" fill="#d5de58"/><path d="m229.81 106.782h-203.62c-6.17 0-11.19 5.02-11.19 11.19v20.056c0 6.17 5.02 11.19 11.19 11.19h161.439c.829 0 1.5-.671 1.5-1.5s-.671-1.5-1.5-1.5h-161.439c-4.516 0-8.19-3.674-8.19-8.19v-20.056c0-4.516 3.674-8.19 8.19-8.19h203.62c4.516 0 8.19 3.674 8.19 8.19v20.056c0 4.516-3.674 8.19-8.19 8.19h-28.439c-.829 0-1.5.671-1.5 1.5s.671 1.5 1.5 1.5h28.439c6.17 0 11.19-5.02 11.19-11.19v-20.056c0-6.17-5.02-11.19-11.19-11.19z" fill="#3a312a"/><path d="m229.81 199.813h-203.62c-5.352 0-9.69 4.339-9.69 9.69v20.056c0 5.352 4.339 9.69 9.69 9.69h203.62c5.352 0 9.69-4.339 9.69-9.69v-20.056c0-5.351-4.339-9.69-9.69-9.69z" fill="#8ac5dc"/><path d="m229.81 198.313h-203.62c-6.17 0-11.19 5.02-11.19 11.19v20.056c0 6.17 5.02 11.19 11.19 11.19h203.62c6.17 0 11.19-5.02 11.19-11.19v-20.056c0-6.17-5.02-11.19-11.19-11.19zm8.19 31.247c0 4.516-3.674 8.19-8.19 8.19h-203.62c-4.516 0-8.19-3.674-8.19-8.19v-20.056c0-4.516 3.674-8.19 8.19-8.19h203.62c4.516 0 8.19 3.674 8.19 8.19z" fill="#3a312a"/><path d="m147.595 79.679c-1.568-1.585-4.138-1.594-5.736-.013l-9.784 9.75v-23.152c0-2.243-1.818-4.061-4.061-4.061-2.243 0-4.061 1.818-4.061 4.061l.004 23.199-9.81-9.844c-1.572-1.581-4.142-1.598-5.74-.009-.304.304-.548.651-.745 1.02-.78 1.525-.531 3.436.75 4.716l16.681 16.758c1.581 1.581 4.155 1.594 5.74.008l16.754-16.694c1.593-1.584 1.593-4.154.008-5.739z" fill="#87796f"/><path d="m148.661 78.625c-1.041-1.053-2.434-1.635-3.919-1.639h-.014c-1.478 0-2.871.573-3.927 1.618l-7.226 7.2v-19.54c0-3.066-2.495-5.561-5.561-5.561-1.485 0-2.882.579-3.933 1.629s-1.629 2.447-1.628 3.933l.003 19.567-7.246-7.271c-1.044-1.05-2.437-1.63-3.919-1.635-1.511-.007-2.887.571-3.945 1.624-.39.39-.729.852-1.021 1.397-1.1 2.151-.688 4.748 1.023 6.458l16.681 16.758c0 .001.001.001.002.002 1.048 1.048 2.442 1.627 3.926 1.631h.015c1.483 0 2.875-.576 3.919-1.621l16.753-16.693c1.055-1.049 1.637-2.444 1.639-3.93s-.577-2.882-1.622-3.927zm-2.134 5.732-16.756 16.696c-.48.479-1.119.744-1.8.744h-.007c-.685-.002-1.329-.269-1.812-.752l-16.682-16.759c-.79-.789-.98-1.984-.488-2.948.14-.261.302-.485.481-.664.485-.482 1.127-.748 1.809-.748h.008c.683.002 1.322.269 1.803.751l9.81 9.844c.429.431 1.075.561 1.635.328.562-.232.927-.779.927-1.387l-.004-23.199c0-.684.266-1.327.75-1.811.483-.483 1.127-.75 1.811-.75 1.412 0 2.561 1.148 2.561 2.561v23.152c0 .606.365 1.153.925 1.385.561.232 1.205.104 1.634-.323l9.781-9.746c.487-.482 1.131-.747 1.813-.747h.007c.681.001 1.318.268 1.8.754.483.483.749 1.126.748 1.809 0 .684-.267 1.326-.754 1.81z" fill="#3a312a"/><path d="m147.595 170.679c-1.568-1.585-4.138-1.594-5.736-.013l-9.784 9.75v-23.152c0-2.243-1.818-4.061-4.061-4.061-2.243 0-4.061 1.818-4.061 4.061l.004 23.199-9.81-9.844c-1.572-1.581-4.142-1.598-5.74-.009-.304.304-.548.651-.745 1.02-.78 1.525-.531 3.436.75 4.716l16.681 16.758c1.581 1.581 4.155 1.594 5.74.008l16.754-16.694c1.593-1.584 1.593-4.154.008-5.739z" fill="#87796f"/><path d="m148.661 169.625c-1.041-1.053-2.434-1.635-3.919-1.639h-.014c-1.478 0-2.871.573-3.927 1.618l-7.226 7.2v-19.54c0-3.066-2.495-5.561-5.561-5.561-1.485 0-2.882.579-3.933 1.629s-1.629 2.447-1.628 3.933l.003 19.567-7.246-7.271c-1.044-1.05-2.437-1.63-3.919-1.635-1.511.001-2.887.571-3.945 1.624-.39.39-.729.852-1.021 1.397-1.1 2.151-.688 4.748 1.023 6.458l16.681 16.758c0 .001.001.001.002.002 1.048 1.048 2.442 1.627 3.926 1.631h.015c1.483 0 2.875-.576 3.919-1.621l16.753-16.693c1.055-1.049 1.637-2.444 1.639-3.93s-.577-2.882-1.622-3.927zm-2.134 5.732-16.756 16.696c-.48.479-1.119.744-1.8.744h-.007c-.685-.002-1.329-.269-1.812-.752l-16.682-16.759c-.79-.789-.98-1.984-.488-2.948.14-.261.302-.485.481-.664.485-.482 1.127-.748 1.809-.748h.008c.683.002 1.322.269 1.803.751l9.81 9.844c.429.431 1.075.561 1.635.328.562-.232.927-.779.927-1.387l-.004-23.199c0-.684.266-1.327.75-1.811.483-.483 1.127-.75 1.811-.75 1.412 0 2.561 1.148 2.561 2.561v23.152c0 .606.365 1.153.925 1.385.561.233 1.205.105 1.634-.323l9.781-9.746c.489-.483 1.183-.734 1.82-.747.681.001 1.318.268 1.8.754.483.483.749 1.126.748 1.809 0 .684-.267 1.326-.754 1.81z" fill="#3a312a"/><path d="m229.81 18.25h-15c4.52 0 8.19 3.67 8.19 8.19v20.06c0 4.51-3.67 8.19-8.19 8.19h15c4.52 0 8.19-3.68 8.19-8.19v-20.06c0-4.52-3.67-8.19-8.19-8.19z" fill="#d34e5c"/><path d="m229.81 109.78h-15c4.52 0 8.19 3.68 8.19 8.19v20.06c0 4.51-3.67 8.19-8.19 8.19h15c4.52 0 8.19-3.68 8.19-8.19v-20.06c0-4.51-3.67-8.19-8.19-8.19z" fill="#b9c239"/><path d="m229.81 201.31h-15c4.52 0 8.19 3.68 8.19 8.19v20.06c0 4.52-3.67 8.19-8.19 8.19h15c4.52 0 8.19-3.67 8.19-8.19v-20.06c0-4.51-3.67-8.19-8.19-8.19z" fill="#6ca8bf"/></svg>
