<svg id="Layer_1" enable-background="new 0 0 128 128" height="512" viewBox="0 0 128 128" width="512" xmlns="http://www.w3.org/2000/svg"><g><path d="m124.844 112.81-10.822-9.984c-.292-.27-.716-.34-1.079-.181s-.599.519-.599.916v3.926h-13.281c10.185-9.247 16.289-22.912 15.249-37.938-1.649-23.826-21.454-42.779-45.328-43.447-16.121-.451-30.483 7.31-39.231 19.391-6.18-1.001-10.919-6.359-10.919-12.817 0-7.168 5.832-13 13-13 1.668 0 3.341.334 4.904.974l-2.093 2.502c-.254.305-.305.731-.128 1.087s.523.586.944.554l14.707-.719c.279-.014.539-.144.719-.357.179-.215.26-.494.224-.771l-1.9-14.602c-.051-.394-.33-.72-.712-.831-.376-.111-.791.014-1.047.318l-2.831 3.388c-3.889-2.32-8.29-3.543-12.787-3.543-13.785 0-25 11.215-25 25 0 11.007 7.153 20.368 17.052 23.697-1.939 5.131-3.009 10.685-3.009 16.486 0 3.704.439 7.4 1.309 11.001l-4.006 1.22c-.38.116-.655.446-.702.84-.046.395.146.779.487.98l12.705 7.441c.241.14.531.173.797.094.268-.082.488-.271.609-.522l6.396-13.263c.173-.357.117-.784-.141-1.085-.259-.302-.672-.421-1.051-.307l-3.574 1.089c-.552-2.492-.83-5.006-.83-7.488 0-20.485 17.805-36.891 38.752-34.553 16.206 1.809 29.117 14.979 30.64 31.214 1.838 19.604-12.713 36.297-31.518 37.967h-60.778c-1.657 0-3 1.343-3 3v6.117c0 1.657 1.343 3 3 3h102.371v3.926c0 .397.235.757.599.916.129.057.266.084.401.084.246 0 .489-.091.678-.265l10.822-9.984c.205-.189.322-.456.322-.735s-.116-.547-.321-.736z" fill="#e6e7e8"/><g><g><path d="m26.211 42.573c-6.957-.808-12.377-6.728-12.377-13.898 0-7.72 6.28-14 14-14 2.284 0 4.512.571 6.505 1.617l-2.926 3.501 14.707-.72-1.9-14.601-3.389 4.054c-3.856-2.487-8.362-3.851-12.997-3.851-13.233 0-24 10.767-24 24 0 10.936 7.356 20.181 17.377 23.063 1.32-3.258 3.003-6.329 5-9.165z" fill="#0089ef"/><g><path d="m27.177 89.478 6.396-13.263-4.593 1.4c-.717-2.85-1.102-5.786-1.102-8.757 0-19.726 16.049-35.774 35.774-35.774s35.774 16.049 35.774 35.774c0 18.667-14.374 34.031-32.633 35.628h25.552c10.407-8.398 17.081-21.245 17.081-35.628 0-25.24-20.534-45.774-45.774-45.774s-45.774 20.534-45.774 45.774c0 3.96.512 7.882 1.51 11.68l-4.916 1.498z" fill="#fa759e"/></g></g><path d="m120.166 109.545-10.822-9.984v4.925h-103.372c-1.105 0-2 .895-2 2v6.117c0 1.105.895 2 2 2h103.371v4.926z" fill="#6dc9f7"/><g><path d="m6.972 112.604v-6.117c0-1.104.895-2 2-2h-3c-1.105 0-2 .896-2 2v6.117c0 1.104.895 2 2 2h3c-1.104 0-2-.896-2-2z" fill="#fff"/></g><g fill="#3a2c60"><path d="m120.844 108.81-10.822-9.984c-.293-.27-.717-.34-1.079-.181-.363.159-.599.519-.599.916v3.925h-13.32c9.444-8.563 15.402-20.906 15.402-34.628 0-25.791-20.982-46.774-46.773-46.774-15.577 0-29.391 7.661-37.897 19.406-6.181-.999-10.921-6.356-10.921-12.815 0-7.168 5.832-13 13-13 1.668 0 3.342.334 4.904.974l-2.093 2.503c-.254.305-.305.731-.128 1.087.177.354.521.577.944.554l14.707-.72c.279-.014.539-.144.719-.357.179-.215.26-.494.224-.771l-1.9-14.602c-.051-.394-.33-.72-.712-.831-.381-.114-.792.015-1.047.318l-2.833 3.389c-3.888-2.321-8.289-3.544-12.786-3.544-13.785 0-25 11.215-25 25 0 11.007 7.16 20.35 17.059 23.678-1.944 5.136-3.016 10.697-3.016 16.505 0 3.702.439 7.397 1.309 11.001l-4.005 1.22c-.381.116-.656.446-.702.84-.046.395.146.779.487.98l12.705 7.441c.242.14.531.173.797.094.268-.082.488-.271.609-.522l6.396-13.262c.173-.357.117-.784-.142-1.085-.258-.302-.671-.42-1.05-.307l-3.574 1.089c-.551-2.492-.83-5.007-.83-7.489 0-19.175 15.601-34.774 34.775-34.774s34.773 15.6 34.773 34.774c0 18.125-13.941 33.048-31.661 34.628h-60.791c-1.654 0-3 1.346-3 3v6.118c0 1.654 1.346 3 3 3h22.279c.553 0 1-.447 1-1s-.447-1-1-1h-22.279c-.552 0-1-.448-1-1v-6.118c0-.552.448-1 1-1h103.371c.553 0 1-.447 1-1v-2.642l8.348 7.701-8.348 7.7v-2.642c0-.553-.447-1-1-1h-63.224c-.553 0-1 .447-1 1s.447 1 1 1h62.224v3.925c0 .397.235.757.599.916.129.057.266.084.401.084.246 0 .489-.091.678-.265l10.822-9.983c.205-.189.322-.456.322-.735s-.117-.545-.322-.735zm-116.01-80.135c0-12.683 10.317-23 23-23 4.404 0 8.711 1.276 12.455 3.691.425.275.986.188 1.31-.198l1.924-2.303 1.466 11.262-11.344.556 1.463-1.749c.193-.232.272-.539.213-.836s-.248-.551-.516-.691c-2.158-1.133-4.568-1.731-6.971-1.731-8.271 0-15 6.729-15 15 0 7.129 5.005 13.096 11.682 14.612-1.492 2.275-2.796 4.683-3.879 7.21-9.163-3.033-15.803-11.658-15.803-21.823zm95.592 40.183c0-20.277-16.496-36.774-36.773-36.774-20.278 0-36.775 16.497-36.775 36.774 0 2.987.381 6.016 1.133 9.001.066.266.239.492.478.627.239.134.523.164.783.086l2.409-.734-4.933 10.229-9.8-5.739 2.731-.832c.515-.157.812-.691.676-1.211-.98-3.731-1.478-7.575-1.478-11.426 0-24.688 20.086-44.774 44.775-44.774 24.688 0 44.773 20.086 44.773 44.774 0 13.947-6.423 26.41-16.452 34.628h-15.983c14.224-5.083 24.436-18.68 24.436-34.629z"/><path d="m41.583 113.604h-9.081c-.553 0-1 .447-1 1s.447 1 1 1h9.081c.553 0 1-.447 1-1s-.447-1-1-1z"/></g></g></g></svg>