<?xml version="1.0" encoding="UTF-8"?>
<svg id="lean" width="512" height="512" enable-background="new 0 0 256 256" version="1.1" viewBox="0 0 256 256" xmlns="http://www.w3.org/2000/svg" xmlns:cc="http://creativecommons.org/ns#" xmlns:dc="http://purl.org/dc/elements/1.1/" xmlns:rdf="http://www.w3.org/1999/02/22-rdf-syntax-ns#">
 <metadata>
  <rdf:RDF>
   <cc:Work rdf:about="">
    <dc:format>image/svg+xml</dc:format>
    <dc:type rdf:resource="http://purl.org/dc/dcmitype/StillImage"/>
    <dc:title/>
   </cc:Work>
  </rdf:RDF>
 </metadata>
 <g transform="matrix(.98516 0 0 .98516 .44942 3.7791)">
  <rect x="3.0938" y="-.28608" width="252.76" height="252.76" ry="38.886" fill="#fff" fill-rule="evenodd" stroke="#3a312a" stroke-width="6.0848"/>
 </g>
 <g transform="matrix(.75506 0 0 .75506 283.62 256.59)">
  <path d="m-278.1-290.31h192v192h-192z" fill="#ccd1d9" stroke-width="4"/>
  <g transform="matrix(4 0 0 4 -334.1 -298.31)" fill="#69d6f4">
   <path d="m50 6h8v4h-8z"/>
   <path d="m18 6h8v4h-8z"/>
   <path d="m34 6h8v4h-8z"/>
   <path d="m34 18h8v4h-8z"/>
   <path d="m50 30h8v4h-8z"/>
   <path d="m50 42h8v4h-8z"/>
   <path d="m34 42h8v4h-8z"/>
  </g>
  <g stroke-width="4">
   <path d="m-234.1-50.305h-28l-3.6-39.6 11.6 11.6 11.8-28.6c4.16 2.36 8 5.28 11.4 8.6l0.4 0.4c10.12 10.16 16.4 24.16 16.4 39.6v8z" fill="#ff826e"/>
   <path d="m-306.1-50.305h-20v-8c0-20.8 11.36-38.96 28.2-48.6l11.8 28.6 11.6-11.6-3.6 39.6z" fill="#ff826e"/>
   <path d="m-270.1-94.305-16 16-11.8-28.6c3.32-1.92 6.84-3.48 10.52-4.68z" fill="#e6e9ed"/>
   <path d="m-242.3-106.91-11.8 28.6-16-16 17.28-17.28c3.68 1.2 7.2 2.76 10.52 4.68z" fill="#e6e9ed"/>
   <path d="m-265.7-89.905 3.6 39.6h-16l3.6-39.6 4.4-4.4z" fill="#5cd6b3"/>
   <path d="m-252.82-111.59-17.28 17.28-17.28-17.28c5.44-1.76 11.24-2.72 17.28-2.72s11.84 0.96 17.28 2.72z" fill="#f0d0b4"/>
   <path d="m-242.42-146.31c0.24 1.32 0.32 2.64 0.32 4 0 15.48-12.52 28-28 28s-28-12.52-28-28c0-12.72 8.44-23.4 20-26.84 2.52-0.76 5.2-1.16 8-1.16 14.12 0 25.76 10.4 27.68 24z" fill="#f0d0b4"/>
   <path d="m-82.102-294.31h-200v122.36c-11.712 4.76-20 16.244-20 29.644 0 11.108 5.696 20.908 14.316 26.644-9.244 2.836-17.712 7.9-24.744 14.928-11.332 11.336-17.572 26.4-17.572 42.428v12h120v-12c0-13.516-4.544-25.96-12.112-36h140.11zm-8 48h-56v-40h56zm-162.34 130.66c8.632-5.736 14.34-15.54 14.34-26.66h20v40h-11.344c-6.512-6.02-14.316-10.66-22.996-13.34zm-17.66 5.34c3.228 0 6.376 0.336 9.444 0.9l-9.444 9.444-9.46-9.46c3.092-0.564 6.252-0.884 9.46-0.884zm-5.656 16-8.928 8.928-8.104-19.684c1.436-0.696 2.896-1.328 4.388-1.892zm5.656 5.656 0.548 0.548 3.072 33.796h-7.24l3.072-33.796zm5.656-5.656 12.62-12.62c1.5 0.568 2.968 1.2 4.4 1.896l-8.092 19.652zm54.344-48h56v40h-56zm0-8v-40h56v40zm0-88h56v40h-56zm-8 40h-56v-40h56zm8-48v-40h56v40zm64 56h56v40h-56zm0-8v-40h56v40zm-72-88v40h-56v-40zm-56 96h56v40h-21.052c-3.568-13.78-16.068-24-30.948-24-1.356 0-2.688 0.112-4 0.276zm-20 48c0-13.236 10.764-24 24-24s24 10.764 24 24-10.764 24-24 24-24-10.764-24-24zm-28 84c0-13.892 5.408-26.944 15.228-36.768 2.208-2.208 4.6-4.156 7.108-5.908l12.248 29.748 8.028-8.028-2.264 24.956h-20.348v-24h-8v24h-12zm104 4h-12v-24h-8v24h-20.348l-2.268-24.96 8.028 8.028 12.24-29.728c13.488 9.408 22.348 25.008 22.348 42.66zm72-48v-40h56v40z"/>
   <path d="m-226.1-278.31h-40v24h40zm-8 16h-24v-8h24z"/>
   <path d="m-202.1-278.31v24h40v-24zm32 16h-24v-8h24z"/>
   <path d="m-98.102-254.31v-24h-40v24zm-32-16h24v8h-24z"/>
   <path d="m-202.1-230.31v24h40v-24zm32 16h-24v-8h24z"/>
   <path d="m-138.1-230.31h40v8h-40z"/>
   <path d="m-106.1-214.31h8v8h-8z"/>
   <path d="m-122.1-214.31h8v8h-8z"/>
   <path d="m-138.1-214.31h8v8h-8z"/>
   <path d="m-138.1-182.31v24h40v-24zm32 16h-24v-8h24z"/>
   <path d="m-202.1-134.31v24h40v-24zm32 16h-24v-8h24z"/>
   <path d="m-138.1-110.31h40v-24h-40zm8-16h24v8h-24z"/>
   <path d="m-266.1-230.31h8v8h-8z"/>
   <path d="m-250.1-230.31h8v8h-8z"/>
   <path d="m-234.1-230.31h8v8h-8z"/>
   <path d="m-266.1-214.31h40v8h-40z"/>
   <path d="m-202.1-182.31h40v8h-40z"/>
   <path d="m-202.1-166.31h40v8h-40z"/>
   <path d="m-234.1-182.31h8v8h-8z"/>
   <path d="m-250.1-182.31h8v8h-8z"/>
   <path d="m-234.1-166.31h8v8h-8z"/>
   <path d="m-266.1-182.31h8v8h-8z"/>
   <path d="m-234.1-134.31h8v8h-8z"/>
   <path d="m-234.1-118.31h8v8h-8z"/>
  </g>
 </g>
</svg>
