<?xml version="1.0" encoding="UTF-8"?>
<svg id="lean" width="512" height="512" enable-background="new 0 0 256 256" version="1.1" viewBox="0 0 256 256" xmlns="http://www.w3.org/2000/svg" xmlns:cc="http://creativecommons.org/ns#" xmlns:dc="http://purl.org/dc/elements/1.1/" xmlns:rdf="http://www.w3.org/1999/02/22-rdf-syntax-ns#">
 <metadata>
  <rdf:RDF>
   <cc:Work rdf:about="">
    <dc:format>image/svg+xml</dc:format>
    <dc:type rdf:resource="http://purl.org/dc/dcmitype/StillImage"/>
    <dc:title/>
   </cc:Work>
  </rdf:RDF>
 </metadata>
 <g transform="matrix(.98516 0 0 .98516 .44942 3.7791)">
  <rect x="3.0938" y="-.28608" width="252.76" height="252.76" ry="38.886" fill="#fff" fill-rule="evenodd" stroke="#3a312a" stroke-width="6.0848"/>
  <g transform="matrix(.37368 0 0 .37368 33.814 30.435)">
   <path d="m118.12 356.04 0.06-31.478c9.153-7.355 15.018-18.635 15.018-31.291v-20.464c0-22.162-17.966-40.128-40.128-40.128s-40.128 17.966-40.128 40.128v20.464c0 12.683 5.89 23.984 15.077 31.337v31.431l-56.471 48.635c-1.744 1.502-2.747 3.689-2.747 5.99v26.063c0 3.432 2.458 6.372 5.836 6.98 23.219 4.177 46.689 6.469 70.184 6.907l94.187-4.014v-39.564z" fill="#deecf1"/>
   <path d="m35.679 441.26v-26.063c0-2.301 1.003-4.489 2.747-5.99l50.851-43.794c3.568-3.073 5.62-7.549 5.62-12.258v-16.774c0-4.148-1.478-8.2-4.307-11.234-6.68-7.165-10.771-16.774-10.771-27.344v-20.464c0-19.717 14.224-36.1 32.968-39.478-5.824-3.292-12.546-5.18-19.713-5.18-22.162 0-40.128 17.966-40.128 40.128v20.464c0 12.683 5.89 23.984 15.077 31.337v31.431l-56.471 48.635c-1.744 1.502-2.747 3.689-2.747 5.99v27.207c0 3.223 2.613 5.836 5.836 5.836 8.17 1.47 16.372 2.693 24.594 3.697-2.147-1.236-3.556-3.549-3.556-6.146z" fill="#cbe5e8"/>
   <path d="m401.05 134.61 12.12 23.486c2.383 4.618 8.971 4.658 11.411 0.07l12.526-23.556h3.936c35.033 0 63.434-28.4 63.434-63.433s-28.4-63.434-63.434-63.434h-370.11c-35.033 0-63.433 28.4-63.433 63.434 0 35.033 28.4 63.433 63.434 63.433h3.936l12.526 23.556c2.44 4.588 9.028 4.547 11.411-0.07l12.12-23.486z" fill="#dff6fd"/>
   <path d="m167.06 133.86h-3.936c-35.033 0-63.434-28.4-63.434-63.433 0-31.724 23.288-58.006 53.7-62.69h-82.452c-35.033 0-63.433 28.4-63.433 63.434 0 35.033 28.4 63.433 63.434 63.433h3.936l12.526 23.556c2.44 4.588 9.028 4.547 11.411-0.07l12.12-23.486h56.525z" fill="#c8effe"/>
   <path d="m116.89 65.381c-1.13 6.833 4.723 12.686 11.556 11.556 4.14-0.685 7.478-4.024 8.163-8.163 1.13-6.833-4.723-12.685-11.556-11.556-4.139 0.684-7.478 4.023-8.163 8.163z"/>
   <path d="m202.69 67.077c0 5.514 4.486 10 10 10s10-4.486 10-10-4.486-10-10-10c-5.515 0-10 4.486-10 10z"/>
   <path d="m395.22 67.077c0-5.514-4.486-10-10-10s-10 4.486-10 10 4.486 10 10 10 10-4.486 10-10z"/>
   <path d="m289.28 67.077c0 5.514 4.486 10 10 10s10-4.486 10-10-4.486-10-10-10-10 4.486-10 10z"/>
   <path d="m497.54 395.88-53.118-44.547 0.06-31.478c9.153-7.355 15.018-18.635 15.018-31.29v-20.464c0-22.162-17.966-40.128-40.128-40.128s-40.128 17.966-40.128 40.128v20.464c0 12.683 5.89 23.984 15.077 31.337v31.431l-56.471 48.635c-1.744 1.502-2.747 3.689-2.747 5.99v27.207c0 3.223 2.613 5.836 5.836 5.836 23.219 4.177 46.689 6.469 70.184 6.907l80.625-3.436c7.582-0.323 13.562-6.563 13.562-14.152v-15.891c1e-3 -6.397-2.848-12.463-7.77-16.549z" fill="#deecf1"/>
   <path d="m368.03 442.1c-3.223 0-5.836-2.613-5.836-5.836v-27.207c0-2.301 1.003-4.489 2.747-5.991l50.101-43.148c4.044-3.483 6.37-8.556 6.37-13.894v-15.196c0-4.526-1.666-8.899-4.704-12.253-6.445-7.117-10.373-16.553-10.373-26.911v-20.464c0-18.977 13.192-34.868 30.892-39.047-5.375-2.674-11.446-4.182-17.857-4.182-22.162 0-40.128 17.966-40.128 40.128v20.464c0 12.683 5.89 23.984 15.077 31.337v31.431l-56.471 48.635c-1.744 1.502-2.747 3.689-2.747 5.99v27.207c0 3.223 2.613 5.836 5.836 5.836 13.778 2.479 27.646 4.277 41.553 5.435-4.827-0.705-9.65-1.469-14.46-2.334z" fill="#cbe5e8"/>
   <g id="XMLID_193_">
    <path d="m396.61 460.77v35.161c0 4.583-3.716 8.299-8.299 8.299h-265.64c-4.583 0-8.299-3.716-8.299-8.299v-35.161c0-25.2 11.64-48.98 31.54-64.43l72.19-56.09 7.119-6.747 59.05-1.774 8.611 8.521 72.19 56.09c19.9 15.45 31.54 39.23 31.54 64.43z" fill="#5f99d7"/>
   </g>
   <path d="m303.47 348.49-10.596-8.233-8.611-8.521-59.05 1.774-7.119 6.747-72.19 56.09c-19.9 15.45-31.54 39.23-31.54 64.43v35.161c0 4.583 3.716 8.299 8.299 8.299h35.322v-27.44c0-25.2 11.64-48.98 31.54-64.43l11.989-9.315c10.791-8.385 24.957-11.446 38.085-7.65 5.045 1.459 10.375 2.241 15.885 2.241 26.758 0 49.293-18.409 55.615-43.226z" fill="#3c87d0"/>
   <path d="m292.87 340.25c0 20.648-16.738 37.386-37.386 37.386s-37.386-16.738-37.386-37.386v-84.22h74.773v84.22z" fill="#ffe5c2"/>
   <path d="m334.27 190.7v-18.074c0-27.239-22.081-49.32-49.32-49.32h-68.154l-6.481-12.398c-1.372-2.625-4.72-3.476-7.179-1.825-15.076 10.12-24.12 27.085-24.12 45.242v36.375l16.84 46.508h120.27z" fill="#a79ba7"/>
   <path d="m218.1 196.73v-36.376c0-13.896 5.311-27.081 14.555-37.046h-15.862l-6.481-12.398c-1.372-2.625-4.72-3.476-7.179-1.825-15.076 10.12-24.12 27.085-24.12 45.242v36.375l16.84 46.508h36.905z" fill="#918291"/>
   <path d="m256.64 338.67c12.797 0 25.024-2.479 36.233-6.975v-75.657h-74.774v84.22c0 20.648 16.738 37.386 37.386 37.386 4.629 0 9.083-0.855 13.175-2.393-8.362-3.144-15.326-15.6-19.605-25.279-2.372-5.363 1.595-11.309 7.459-11.302 0.043-1e-3 0.085 0 0.126 0z" fill="#fed2a4"/>
   <path d="m179.01 190.7v45.896l11.308 2.356 4.94 36.434 55.887 34.452 23.466 2.6 17.959-2.592c24.777-12.966 41.694-38.903 41.694-68.805v-50.341c-52.039-9.518-103.79-9.625-155.25 0z" fill="#ffe5c2"/>
   <path d="m218.1 232.42v-47.159c-13.048 1.195-26.077 3.004-39.087 5.437v50.341c0 42.872 34.755 77.627 77.627 77.627 12.878 0 25.3-3.28 35.992-8.83-41.302-1.774-74.532-35.679-74.532-77.416z" fill="#fed2a4"/>
   <path d="m369.67 390.42-69.298-53.835v-22.542c24.778-14.9 41.395-42.043 41.395-73.001v-68.416c0-31.331-25.489-56.82-56.82-56.82h-63.612l-4.377-8.373c-1.64-3.138-4.549-5.438-7.98-6.31-3.432-0.873-7.085-0.241-10.025 1.732-17.182 11.534-27.44 30.775-27.44 51.469v86.717c0 8.587 1.278 17.069 3.799 25.211 1.225 3.957 5.425 6.169 9.383 4.946 3.957-1.226 6.171-5.426 4.946-9.383-2.076-6.704-3.128-13.693-3.128-20.774v-44.066c46.079-7.9 93.201-7.893 140.25 0.023v44.043c0 38.668-31.459 70.127-70.127 70.127-20.286 0-39.575-8.801-52.92-24.146-2.718-3.126-7.456-3.456-10.581-0.737-3.125 2.718-3.456 7.456-0.737 10.581 5.35 6.151 11.491 11.43 18.199 15.749v23.969l-69.298 53.835c-21.884 17-34.435 42.644-34.435 70.355v43.463c0 4.142 3.358 7.5 7.5 7.5s7.5-3.358 7.5-7.5v-43.463c0-23.045 10.438-44.371 28.637-58.509l62.23-48.344c5.795 18.087 22.766 31.221 42.752 31.221s36.957-13.133 42.752-31.221l62.23 48.344c18.199 14.138 28.637 35.464 28.637 58.509v43.463c0 4.142 3.358 7.5 7.5 7.5s7.5-3.358 7.5-7.5v-43.463c-1e-3 -27.709-12.552-53.353-34.436-70.354zm-183.16-208.65v-27.444c0-14.74 6.864-28.506 18.499-37.368l5.135 9.824c1.293 2.474 3.854 4.025 6.646 4.025h68.154c23.06 0 41.82 18.76 41.82 41.82v9.173c-47.032-7.642-94.127-7.653-140.25-0.03zm68.974 188.37c-16.479 0-29.886-13.407-29.886-29.886v-19.958c9.783 3.838 20.296 5.871 31.04 5.871 10.08 0 19.752-1.772 28.733-5.002v19.089c-1e-3 16.479-13.408 29.886-29.887 29.886z"/>
   <path d="m170.86 458.05c-4.142 0-7.5 3.358-7.5 7.5v38.682c0 4.142 3.358 7.5 7.5 7.5s7.5-3.358 7.5-7.5v-38.682c0-4.142-3.357-7.5-7.5-7.5z"/>
   <path d="m340.12 458.05c-4.142 0-7.5 3.358-7.5 7.5v38.682c0 4.142 3.358 7.5 7.5 7.5s7.5-3.358 7.5-7.5v-38.682c0-4.142-3.358-7.5-7.5-7.5z"/>
   <path d="m16.447 410.35 56.471-48.634c1.655-1.425 2.606-3.5 2.606-5.683v-18.506c5.435 2.163 11.353 3.365 17.55 3.365s12.115-1.202 17.55-3.365v18.506c0 2.183 0.951 4.258 2.606 5.683l14.587 12.563c1.416 1.22 3.157 1.817 4.891 1.817 2.107 0 4.203-0.883 5.687-2.606 2.703-3.138 2.35-7.874-0.789-10.577l-11.982-10.319v-24.608c9.27-8.695 15.077-21.04 15.077-34.722v-20.464c0-26.262-21.366-47.627-47.627-47.627-26.262 0-47.628 21.366-47.628 47.627v20.464c0 13.682 5.808 26.027 15.078 34.723v24.607l-53.866 46.39c-3.401 2.93-5.352 7.185-5.352 11.673v26.063c0 7.07 5.051 13.11 12.008 14.361 23.432 4.216 47.445 6.579 71.373 7.024 0.048 1e-3 0.095 1e-3 0.143 1e-3 4.077 0 7.419-3.267 7.496-7.36 0.077-4.142-3.217-7.561-7.359-7.638-23.019-0.429-46.116-2.693-68.66-6.73v-25.722c0-0.117 0.051-0.229 0.14-0.306zm44-137.55c0-17.991 14.637-32.627 32.628-32.627s32.627 14.637 32.627 32.627v20.464c0 17.991-14.637 32.628-32.627 32.628-17.991 0-32.628-14.637-32.628-32.628z"/>
   <path d="m437.76 356.04c0 2.183 0.951 4.258 2.605 5.683l12.414 10.691c1.417 1.22 3.158 1.817 4.891 1.817 2.107 0 4.203-0.883 5.687-2.605 2.703-3.139 2.35-7.875-0.789-10.578l-9.809-8.447v-24.608c9.27-8.695 15.077-21.04 15.077-34.722v-20.464c0-26.262-21.366-47.627-47.628-47.627s-47.627 21.366-47.627 47.627v20.464c0 13.682 5.808 26.027 15.077 34.722v24.607l-11.982 10.319c-3.138 2.703-3.491 7.439-0.789 10.577 1.483 1.723 3.579 2.606 5.687 2.606 1.733 0 3.475-0.597 4.891-1.817l14.587-12.563c1.655-1.425 2.606-3.5 2.606-5.683v-18.506c5.435 2.163 11.353 3.365 17.55 3.365s12.115-1.202 17.55-3.365v18.507zm-17.55-30.141c-17.991 0-32.627-14.637-32.627-32.628v-20.464c0-17.991 14.637-32.627 32.628-32.627s32.627 14.637 32.627 32.627v20.464c-1e-3 17.991-14.637 32.628-32.628 32.628z"/>
   <path d="m506.62 398.99-19.392-16.701c-3.139-2.703-7.875-2.35-10.578 0.789s-2.35 7.875 0.789 10.578l19.393 16.701c0.089 0.077 0.141 0.189 0.141 0.308v25.722c-22.543 4.037-45.642 6.301-68.66 6.73-4.142 0.077-7.436 3.497-7.359 7.638 0.076 4.094 3.418 7.36 7.496 7.36 0.047 0 0.095 0 0.143-1e-3 23.927-0.445 47.94-2.809 71.372-7.024 6.958-1.251 12.009-7.291 12.009-14.361v-26.063c-2e-3 -4.492-1.953-8.747-5.354-11.676z"/>
   <path d="m441.04 127.11h-3.936c-2.773 0-5.32 1.53-6.622 3.979l-11.577 21.772-11.192-21.69c-1.287-2.494-3.858-4.061-6.665-4.061h-46.507c-4.142 0-7.5 3.358-7.5 7.5s3.358 7.5 7.5 7.5h41.938l10.024 19.426c2.386 4.623 7.1 7.516 12.302 7.548h0.088c5.168 0 9.878-2.828 12.308-7.396l10.411-19.58c38.85-0.309 70.361-32.009 70.361-70.931 0-13.23-3.679-26.149-10.64-37.361-2.185-3.519-6.81-4.6-10.328-2.416-3.519 2.185-4.601 6.809-2.416 10.328 5.484 8.834 8.383 19.017 8.383 29.449 2e-3 30.842-25.09 55.933-55.932 55.933z"/>
   <path d="m70.361 142.1 10.412 19.581c2.429 4.568 7.139 7.396 12.308 7.396h0.088c5.202-0.032 9.917-2.925 12.302-7.548l10.024-19.426h35.851c4.142 0 7.5-3.358 7.5-7.5s-3.358-7.5-7.5-7.5h-40.42c-2.806 0-5.378 1.567-6.665 4.061l-11.193 21.69-11.576-21.772c-1.302-2.449-3.849-3.979-6.622-3.979h-3.936c-30.842 0-55.934-25.092-55.934-55.934s25.092-55.933 55.934-55.933h370.11c9.397 0 18.694 2.379 26.886 6.879 3.632 1.995 8.19 0.668 10.185-2.962s0.668-8.19-2.962-10.185c-10.399-5.712-22.193-8.732-34.109-8.732h-370.11c-39.113 0-70.934 31.821-70.934 70.934 0 38.922 31.511 70.622 70.361 70.93z"/>
  </g>
 </g>
</svg>
