<?xml version="1.0" encoding="UTF-8"?>
<svg id="lean" width="512" height="512" enable-background="new 0 0 256 256" version="1.1" viewBox="0 0 256 256" xmlns="http://www.w3.org/2000/svg" xmlns:cc="http://creativecommons.org/ns#" xmlns:dc="http://purl.org/dc/elements/1.1/" xmlns:rdf="http://www.w3.org/1999/02/22-rdf-syntax-ns#">
 <metadata>
  <rdf:RDF>
   <cc:Work rdf:about="">
    <dc:format>image/svg+xml</dc:format>
    <dc:type rdf:resource="http://purl.org/dc/dcmitype/StillImage"/>
    <dc:title/>
   </cc:Work>
  </rdf:RDF>
 </metadata>
 <g transform="matrix(.98516 0 0 .98516 .44942 3.7791)">
  <rect x="3.0938" y="-.28608" width="252.76" height="252.76" ry="38.886" fill="#fff" fill-rule="evenodd" stroke="#3a312a" stroke-width="6.0848"/>
  <g transform="matrix(.46866 0 0 .46866 73.31 67.043)">
   <g stroke-width=".67671">
    <path d="m253.57 258.11h-293.77c-4.4885 0-8.1284-3.64-8.1284-8.1284v-241.56c0-14.24 11.544-25.784 25.784-25.784h258.45c14.237 0 25.781 11.544 25.781 25.784v241.56c0 4.4885-3.6373 8.1284-8.1258 8.1284z" fill="#d0f4ef"/>
    <path d="m261.69 8.4275v241.55c0 4.4911-3.6347 8.1311-8.1231 8.1311h-24.65c4.4885 0 8.1284-3.64 8.1284-8.1311v-241.55c0-14.245-11.546-25.784-25.781-25.784h24.65c14.237 0 25.776 11.538 25.776 25.784z" fill="#abe0da"/>
    <path d="m261.69 8.4275v39.431h-310.02v-39.431c0-14.245 11.546-25.784 25.792-25.784h258.45c14.237 0 25.776 11.538 25.776 25.784z" fill="#f72b2b"/>
    <path d="m261.69 8.4275v39.431h-24.644v-39.431c0-14.245-11.546-25.784-25.784-25.784h24.652c14.237 0 25.776 11.538 25.776 25.784z" fill="#d61b1f"/>
    <path d="m80.813 229.92c-3.8171 0-7.6315-1.4565-10.544-4.3669l-26.096-26.096c-5.8234-5.8234-5.8234-15.266 0-21.089 5.8234-5.8208 15.266-5.8234 21.089 0l15.551 15.554 60.92-60.92c5.8234-5.8234 15.266-5.8234 21.089 0 5.8234 5.8234 5.8234 15.263 0 21.086l-71.464 71.464c-2.913 2.9104-6.7274 4.3669-10.544 4.3669z" fill="#f72b2b"/>
   </g>
   <g transform="matrix(.67671 0 0 .67671 -53.402 -41.049)" fill="#ffbd47">
    <path d="m89.316 65.375h-13.934c-5.918 0-10.719-4.7969-10.719-10.715v-36.441c0-5.918 4.8008-10.719 10.719-10.719h13.934c5.918 0 10.715 4.8008 10.715 10.719v36.438c0 5.9219-4.7969 10.719-10.715 10.719z"/>
    <path d="m189.43 65.375h-13.934c-5.918 0-10.715-4.7969-10.715-10.715v-36.441c0-5.918 4.7969-10.719 10.715-10.719h13.934c5.918 0 10.719 4.8008 10.719 10.719v36.438c0 5.9219-4.8008 10.719-10.719 10.719z"/>
    <path d="m289.54 65.375h-13.934c-5.918 0-10.715-4.7969-10.715-10.715v-36.441c0-5.918 4.7969-10.719 10.715-10.719h13.934c5.9219 0 10.719 4.8008 10.719 10.719v36.438c0 5.9219-4.7969 10.719-10.719 10.719z"/>
    <path d="m389.65 65.375h-13.934c-5.9219 0-10.719-4.7969-10.719-10.715v-36.441c0-5.918 4.7969-10.719 10.719-10.719h13.934c5.918 0 10.715 4.8008 10.715 10.719v36.438c0 5.9219-4.7969 10.719-10.715 10.719z"/>
   </g>
   <g stroke-width=".67671">
    <path d="m288 225.71c0 34.385-27.875 62.26-62.26 62.26-34.385 0-62.26-27.875-62.26-62.26 0-34.385 27.875-62.26 62.26-62.26 34.385 0 62.26 27.875 62.26 62.26z" fill="#38aaff"/>
    <path d="m270.51 225.71c0 24.729-20.045 44.776-44.774 44.776-24.729 0-44.776-20.047-44.776-44.776s20.047-44.774 44.776-44.774c24.729 0 44.774 20.045 44.774 44.774z" fill="#d0f4ef"/>
    <path d="m-48.327 205.84c2.802 0 5.0753-2.2707 5.0753-5.0753v-147.82h299.87v55.789c0 2.8046 2.2733 5.0753 5.0753 5.0753 2.8046 0 5.0753-2.2707 5.0753-5.0753v-100.3c0-17.016-13.843-30.859-30.856-30.859h-13.309v-6.286c0-6.7988-5.53-12.329-12.329-12.329h-9.429c-6.7962 0-12.326 5.53-12.326 12.329v6.286h-33.661v-6.286c0-6.7988-5.53-12.329-12.329-12.329h-9.429c-6.7962 0-12.326 5.53-12.326 12.329v6.286h-33.664v-6.286c0-6.7988-5.53-12.329-12.329-12.329h-9.4263c-6.7988 0-12.329 5.53-12.329 12.329v6.286h-33.661v-6.286c0-6.7988-5.53-12.329-12.329-12.329h-9.4263c-6.7988 0-12.329 5.53-12.329 12.329v6.286h-7.8244c-17.016 0-30.859 13.843-30.859 30.859v192.34c0 2.8046 2.2733 5.0753 5.0753 5.0753zm247-234.56c0-1.2001 0.97806-2.1782 2.1782-2.1782h9.429c1.2001 0 2.1755 0.97805 2.1755 2.1782v24.658c0 1.2001-0.97541 2.1782-2.1755 2.1782h-9.429c-1.2001 0-2.1782-0.97541-2.1782-2.1782zm-67.745 0c0-1.2001 0.97541-2.1782 2.1755-2.1782h9.429c1.2001 0 2.1782 0.97805 2.1782 2.1782v24.658c0 1.2001-0.97806 2.1782-2.1782 2.1782h-9.429c-1.2001 0-2.1755-0.97541-2.1755-2.1782zm-67.747 0c0-1.2001 0.97805-2.1782 2.1782-2.1782h9.429c1.2001 0 2.1782 0.97805 2.1782 2.1782v24.658c0 1.2001-0.97805 2.1782-2.1782 2.1782h-9.429c-1.2001 0-2.1782-0.97541-2.1782-2.1782zm-67.745 0c0-1.2001 0.97806-2.1782 2.1782-2.1782h9.429c1.2001 0 2.1755 0.97805 2.1755 2.1782v24.658c0 1.2001-0.97541 2.1782-2.1755 2.1782h-9.429c-1.2001 0-2.1782-0.97541-2.1782-2.1782zm-17.975 16.437h7.8244v8.2209c0 6.7988 5.53 12.329 12.329 12.329h9.429c6.7962 0 12.326-5.53 12.326-12.329v-8.2209h33.664v8.2209c0 6.7988 5.53 12.329 12.326 12.329h9.429c6.7988 0 12.329-5.53 12.329-12.329v-8.2209h33.661v8.2209c0 6.7988 5.53 12.329 12.329 12.329h9.429c6.7962 0 12.326-5.53 12.326-12.329v-8.2209h33.661v8.2209c0 6.7988 5.53 12.329 12.329 12.329h9.429c6.7962 0 12.326-5.53 12.326-12.329v-8.2209h13.309c11.419 0 20.708 9.2889 20.708 20.708v34.364h-299.87v-34.364c0-11.419 9.2889-20.708 20.708-20.708z"/>
    <path d="m4.0572 253.04h-44.256c-1.6838 0-3.0531-1.3693-3.0531-3.0531v-26.093c0-2.8046-2.2733-5.0753-5.0753-5.0753s-5.0753 2.2707-5.0753 5.0753v26.093c0 7.2799 5.9238 13.204 13.204 13.204h44.256c2.802 0 5.0753-2.2733 5.0753-5.0753 0-2.8046-2.2733-5.0753-5.0753-5.0753z"/>
    <path d="m3.888 67.74h-17.642c-2.802 0-5.0753 2.2733-5.0753 5.0753 0 2.8046 2.2733 5.0753 5.0753 5.0753h17.642c2.802 0 5.0753-2.2707 5.0753-5.0753 0-2.802-2.2733-5.0753-5.0753-5.0753z"/>
    <path d="m40.462 77.891h17.642c2.802 0 5.0753-2.2707 5.0753-5.0753 0-2.802-2.2733-5.0753-5.0753-5.0753h-17.642c-2.802 0-5.0753 2.2733-5.0753 5.0753 0 2.8046 2.2733 5.0753 5.0753 5.0753z"/>
    <path d="m94.678 77.891h17.639c2.802 0 5.0753-2.2707 5.0753-5.0753 0-2.802-2.2733-5.0753-5.0753-5.0753h-17.639c-2.8046 0-5.0753 2.2733-5.0753 5.0753 0 2.8046 2.2707 5.0753 5.0753 5.0753z"/>
    <path d="m148.89 77.891h17.642c2.802 0 5.0753-2.2707 5.0753-5.0753 0-2.802-2.2733-5.0753-5.0753-5.0753h-17.642c-2.802 0-5.0753 2.2733-5.0753 5.0753 0 2.8046 2.2733 5.0753 5.0753 5.0753z"/>
    <path d="m220.75 67.74h-17.639c-2.8046 0-5.0753 2.2733-5.0753 5.0753 0 2.8046 2.2707 5.0753 5.0753 5.0753h17.639c2.802 0 5.0753-2.2707 5.0753-5.0753 0-2.802-2.2733-5.0753-5.0753-5.0753z"/>
    <path d="m3.888 93.262h-17.642c-2.802 0-5.0753 2.2707-5.0753 5.0753 0 2.8046 2.2733 5.0753 5.0753 5.0753h17.642c2.802 0 5.0753-2.2707 5.0753-5.0753 0-2.8046-2.2733-5.0753-5.0753-5.0753z"/>
    <path d="m40.462 103.41h17.642c2.802 0 5.0753-2.2707 5.0753-5.0753 0-2.8046-2.2733-5.0753-5.0753-5.0753h-17.642c-2.802 0-5.0753 2.2707-5.0753 5.0753 0 2.8046 2.2733 5.0753 5.0753 5.0753z"/>
    <path d="m94.678 103.41h17.639c2.802 0 5.0753-2.2707 5.0753-5.0753 0-2.8046-2.2733-5.0753-5.0753-5.0753h-17.639c-2.8046 0-5.0753 2.2707-5.0753 5.0753 0 2.8046 2.2707 5.0753 5.0753 5.0753z"/>
    <path d="m148.89 103.41h17.642c2.802 0 5.0753-2.2707 5.0753-5.0753 0-2.8046-2.2733-5.0753-5.0753-5.0753h-17.642c-2.802 0-5.0753 2.2707-5.0753 5.0753 0 2.8046 2.2733 5.0753 5.0753 5.0753z"/>
    <path d="m220.75 93.262h-17.639c-2.8046 0-5.0753 2.2707-5.0753 5.0753 0 2.8046 2.2707 5.0753 5.0753 5.0753h17.639c2.802 0 5.0753-2.2707 5.0753-5.0753 0-2.8046-2.2733-5.0753-5.0753-5.0753z"/>
    <path d="m40.586 203.05 26.096 26.096c3.7748 3.7748 8.7919 5.8525 14.132 5.8525s10.359-2.0777 14.132-5.8525l71.464-71.464c7.7927-7.7927 7.7927-20.473 0-28.266-7.7927-7.7927-20.473-7.7927-28.266 0l-57.33 57.33-11.964-11.961c-7.7901-7.7927-20.47-7.7927-28.266 0-7.7901 7.7927-7.7901 20.473 0.0025 28.266zm7.1768-21.089c1.9164-1.9164 4.4356-2.876 6.9548-2.876s5.0383 0.95955 6.9548 2.876l15.551 15.551c1.9826 1.9825 5.1943 1.9825 7.1768 0l60.92-60.917c3.8382-3.8356 10.077-3.8356 13.91-3e-3 3.8356 3.8356 3.8356 10.077 0 13.912l-71.461 71.461c-1.8583 1.8583-4.3272 2.8813-6.9548 2.8813s-5.0964-1.023-6.9548-2.8813l-26.096-26.096c-3.8356-3.8356-3.8356-10.074 0-13.91z"/>
    <path d="m266.77 172.36v-40.499c0-2.8046-2.2707-5.0753-5.0753-5.0753-2.802 0-5.0753 2.2707-5.0753 5.0753v34.026c-9.2545-4.7978-19.757-7.5125-30.88-7.5125-37.129 0-67.335 30.206-67.335 67.335 0 9.725 2.075 18.972 5.7996 27.33h-137.02c-2.802 0-5.0753 2.2707-5.0753 5.0753 0 2.802 2.2733 5.0753 5.0753 5.0753h142.64c12.099 17.994 32.646 29.854 55.913 29.854 37.129 0 67.335-30.206 67.335-67.335 0-21.697-10.32-41.028-26.304-53.349zm-41.031 110.53c-31.533 0-57.184-25.651-57.184-57.184 0-31.533 25.654-57.184 57.184-57.184 31.53 0 57.184 25.651 57.184 57.184 0 31.533-25.654 57.184-57.184 57.184z"/>
    <path d="m225.74 175.85c-27.489 0-49.852 22.366-49.852 49.852 0 27.489 22.363 49.852 49.852 49.852 27.489 0 49.849-22.363 49.849-49.852 0-27.486-22.363-49.852-49.849-49.852zm4.544 89.283c0.3357-0.67934 0.53131-1.4406 0.53131-2.2495v-6.1829c0-2.802-2.2733-5.0753-5.0753-5.0753-2.802 0-5.0753 2.2733-5.0753 5.0753v6.1829c0 0.80888 0.19298 1.5702 0.53133 2.2495-18.266-2.0909-32.797-16.622-34.887-34.887 0.67671 0.33836 1.4406 0.53132 2.2495 0.53132h6.1802c2.8046 0 5.0753-2.2707 5.0753-5.0753s-2.2707-5.0753-5.0753-5.0753h-6.1802c-0.80888 0-1.5728 0.19561-2.2495 0.53132 2.0909-18.266 16.622-32.797 34.887-34.887-0.33835 0.67935-0.53133 1.4406-0.53133 2.2495v6.1829c0 2.8046 2.2733 5.0753 5.0753 5.0753 2.802 0 5.0753-2.2707 5.0753-5.0753v-6.1829c0-0.80888-0.19561-1.5702-0.53131-2.2495 18.266 2.0909 32.797 16.622 34.887 34.887-0.67936-0.3357-1.4407-0.53132-2.2495-0.53132h-6.1829c-2.802 0-5.0753 2.2707-5.0753 5.0753s2.2733 5.0753 5.0753 5.0753h6.1829c0.80887 0 1.5702-0.19296 2.2495-0.53132-2.0936 18.266-16.622 32.797-34.887 34.887z"/>
    <path d="m236.92 220.63h-6.1115v-5.2048c0-2.802-2.2733-5.0753-5.0753-5.0753-2.8046 0-5.0753 2.2733-5.0753 5.0753v10.28c0 2.8046 2.2707 5.0753 5.0753 5.0753h11.187c2.802 0 5.0753-2.2707 5.0753-5.0753s-2.2733-5.0753-5.0753-5.0753z"/>
   </g>
  </g>
 </g>
</svg>
