<?xml version="1.0" encoding="UTF-8"?>
<svg id="lean" width="512" height="512" enable-background="new 0 0 256 256" version="1.1" viewBox="0 0 256 256" xmlns="http://www.w3.org/2000/svg" xmlns:cc="http://creativecommons.org/ns#" xmlns:dc="http://purl.org/dc/elements/1.1/" xmlns:rdf="http://www.w3.org/1999/02/22-rdf-syntax-ns#">
 <metadata>
  <rdf:RDF>
   <cc:Work rdf:about="">
    <dc:format>image/svg+xml</dc:format>
    <dc:type rdf:resource="http://purl.org/dc/dcmitype/StillImage"/>
    <dc:title/>
   </cc:Work>
  </rdf:RDF>
 </metadata>
 <g transform="matrix(.98516 0 0 .98516 .44942 3.7791)">
  <rect x="3.0938" y="-.28608" width="252.76" height="252.76" ry="38.886" fill="#fff" fill-rule="evenodd" stroke="#3a312a" stroke-width="6.0848"/>
 </g>
 <g transform="matrix(.82504 0 0 .82504 34.029 85.937)" stroke-width="4">
  <path d="m233.9 114.98v48h-40v-48z" fill="#5cd6b3"/>
  <path d="m89.898 146.98v24h-96v-96h96v56z" fill="#e6e9ed"/>
  <path d="m193.9 130.98v16h-104v-16h32z" fill="#ffeaa7"/>
  <path d="m121.9-69.017c55.24 0 100 44.76 100 100s-44.76 100-100 100h-32v-24h32c41.96 0 76-34.04 76-76s-34.04-76-76-76c-41.96 0-76 34.04-76 76h8l-20 24-20-24h8c0-55.24 44.76-100 100-100z" fill="#ffeaa7"/>
  <path d="m133.9 30.983h40c0 22.08-17.92 40-40 40s-40-17.92-40-40z" fill="#e6e9ed"/>
  <path d="m173.9 30.983h-40v-40c22.08 0 40 17.92 40 40z" fill="#ff826e"/>
  <path d="m117.9-25.017v40h-40c0-22.08 17.92-40 40-40z" fill="#5cd6b3"/>
  <path d="m189.9 110.98v16h-28.028c37.564-15.696 64.028-52.812 64.028-96 0-57.348-46.652-104-104-104-56.004 0-101.81 44.504-103.92 100h-12.616l28.54 34.248 28.54-34.248h-12.428c2.08-37.848 33.528-68 71.888-68 39.7 0 72 32.3 72 72 0 39.7-32.3 72-72 72h-28v-32h-104v104h104v-24h96v16h48v-56zm-68 0c44.112 0 80-35.888 80-80s-35.888-80-80-80c-44.112 0-80 35.888-80 80v4h3.46l-11.46 13.752-11.46-13.752h3.46v-4c0-52.932 43.068-96 96-96 52.932 0 96 43.068 96 96s-43.068 96-96 96h-28v-16zm-36 56h-88v-88h88zm8-24v-8h96v8zm136 16h-32v-40h32z"/>
  <path d="m205.9 126.98h16v8h-16z"/>
  <path d="m205.9 142.98h16v8h-16z"/>
  <path d="m5.8983 86.983h8v8h-8z"/>
  <path d="m21.898 86.983h8v8h-8z"/>
  <path d="m37.898 86.983h40v8h-40z"/>
  <path d="m5.8983 102.98h72v8h-72z"/>
  <path d="m5.8983 118.98h72v8h-72z"/>
  <path d="m5.8983 134.98h72v8h-72z"/>
  <path d="m69.898 150.98h8v8h-8z"/>
  <path d="m53.898 150.98h8v8h-8z"/>
  <path d="m5.8983 150.98h40v8h-40z"/>
  <path d="m89.898 30.983c0 24.26 19.74 44 44 44s44-19.74 44-44c0-24.26-19.74-44-44-44h-4v40h-40zm79.756-4h-31.756v-31.776c16.66 1.848 29.904 15.116 31.756 31.776zm-35.756 8h35.764c-1.996 17.972-17.264 32-35.764 32s-33.78-14.024-35.776-32z"/>
  <path d="m73.898 14.983v4h48v-48h-4c-24.26 0-44 19.74-44 44zm40-4h-31.776c1.848-16.66 15.116-29.928 31.776-31.776z"/>
  <path d="m113.9 42.983h8v8h-8z"/>
  <path d="m129.9 42.983h8v8h-8z"/>
  <path d="m145.9 42.983h8v8h-8z"/>
 </g>
</svg>
