<?xml version="1.0" encoding="UTF-8"?>
<svg id="lean" width="512" height="512" enable-background="new 0 0 256 256" version="1.1" viewBox="0 0 256 256" xmlns="http://www.w3.org/2000/svg" xmlns:cc="http://creativecommons.org/ns#" xmlns:dc="http://purl.org/dc/elements/1.1/" xmlns:rdf="http://www.w3.org/1999/02/22-rdf-syntax-ns#">
 <metadata>
  <rdf:RDF>
   <cc:Work rdf:about="">
    <dc:format>image/svg+xml</dc:format>
    <dc:type rdf:resource="http://purl.org/dc/dcmitype/StillImage"/>
    <dc:title/>
   </cc:Work>
  </rdf:RDF>
 </metadata>
 <g transform="matrix(.98516 0 0 .98516 .44942 3.7791)">
  <rect x="3.0938" y="-.28608" width="252.76" height="252.76" ry="38.886" fill="#fff" fill-rule="evenodd" stroke="#3a312a" stroke-width="6.0848"/>
  <g transform="translate(1.8509 -5.7435)" stroke-width=".39652">
   <path d="m217.23 96.851h-73.753v0.51888l-31.658 58.558c1.1416 27.329 19.076 51.71 44.383 62.556l6.0067 2.5774c3.9931 1.7084 8.5066 1.7084 12.5 0l6.0067-2.5774c26.242-11.245 44.446-37.052 44.446-65.601v-48.102c0-4.3819-3.5486-7.9304-7.9304-7.9304z" fill="#a9def8"/>
   <path d="m192.25 192.02h-47.583c0-13.141 10.65-23.791 23.791-23.791 13.141 0 23.791 10.65 23.791 23.791z" fill="#fff"/>
   <path d="m143.48 96.851v0.51888c0 28.491-18.147 54.333-44.446 65.601l-6.0067 2.5774c-3.9931 1.7084-8.5066 1.7084-12.5 0l-6.0067-2.5774c-26.242-11.245-44.446-37.052-44.446-65.601v-48.102c0-4.3819 3.5486-7.9304 7.9304-7.9304h97.544c4.3819 0 7.9304 3.5486 7.9304 7.9304z" fill="#f6d465"/>
   <path d="m62.988 112.71h47.583c0 13.141-10.65 23.791-23.791 23.791-13.141 0-23.791-10.65-23.791-23.791z" fill="#fff"/>
   <path d="m160.53 116.68c2.1886 0 3.9652-1.7766 3.9652-3.9652 0-2.1886-1.7766-3.9652-3.9652-3.9652s-3.9652 1.7766-3.9652 3.9652c0 2.1886 1.7766 3.9652 3.9652 3.9652z"/>
   <path d="m55.057 61.164c2.1886 0 3.9652-1.7766 3.9652-3.9652s-1.7766-3.9652-3.9652-3.9652c-2.1886 0-3.9652 1.7766-3.9652 3.9652s1.7766 3.9652 3.9652 3.9652z"/>
   <path d="m72.96 166.61 6.0098 2.5789c4.9627 2.1251 10.655 2.1251 15.622-2e-3l6.0051-2.5758c2.6843-1.1508 5.3081-2.4612 7.853-3.9079 3.5222 25.793 21.09 48.662 46.193 59.419l6.0098 2.579c4.9612 2.1236 10.655 2.1251 15.621-2e-3l6.0067-2.5758c27.927-11.967 46.85-39.313 46.85-69.246v-48.101c0-6.5596-5.336-11.896-11.896-11.896h-69.788v-43.617c0-6.5596-5.336-11.896-11.896-11.896h-97.544c-6.5596 0-11.896 5.336-11.896 11.896v48.102c0 29.971 18.96 57.294 46.848 69.244zm148.24-61.833v48.102c0 26.282-16.896 51.181-42.044 61.957l-6.0051 2.5774c-2.9786 1.2748-6.397 1.2748-9.374 0l-6.0098-2.5774c-23.757-10.181-39.99-32.375-41.855-56.949 5.6319-4.1046 10.61-8.8629 14.854-14.112 3.5625 2.9801 8.0559 4.6204 12.715 4.6204 4.8342 0 9.4933-1.7611 13.116-4.9565 1.6418-1.4498 1.7983-3.9544 0.35006-5.5978-1.4498-1.6418-3.9559-1.7983-5.5978-0.3485-2.1731 1.916-4.9674 2.9724-7.8685 2.9724-2.9011 0-5.6954-1.0548-7.8685-2.9724-0.0573-0.0527-0.11926-0.096-0.17967-0.14405 7.1095-10.934 11.292-23.502 11.922-36.536h69.879c2.1871 0 3.9652 1.7782 3.9652 3.9652zm-187.16-55.513c0-2.1871 1.7782-3.9652 3.9652-3.9652h97.544c2.1871 0 3.9652 1.7782 3.9652 3.9652v48.102c0 27.078-17.253 51.336-42.044 61.957l-6.0051 2.5774c-2.9801 1.2748-6.3986 1.2748-9.374 0l-6.0098-2.5774c-25.147-10.776-42.042-35.675-42.042-61.957z"/>
   <path d="m110.57 108.75h-47.583c-2.1902 0-3.9652 1.7751-3.9652 3.9652 0 15.305 12.452 27.757 27.757 27.757 15.305 0 27.757-12.452 27.757-27.757 0-2.1902-1.775-3.9652-3.9652-3.9652zm-23.791 23.791c-9.5738 0-17.585-6.8261-19.428-15.866h38.856c-1.8432 9.0379-9.8542 15.866-19.428 15.866z"/>
   <path d="m62.988 84.955c2.9011 0 5.6954 1.0564 7.8685 2.9739 1.6449 1.4513 4.1511 1.2871 5.5978-0.35005 1.4482-1.6419 1.2918-4.148-0.35005-5.5962-3.6229-3.197-8.282-4.9581-13.116-4.9581-4.8342 0-9.4917 1.7611-13.115 4.9581-1.6418 1.4482-1.7983 3.9544-0.35005 5.5962 1.4482 1.6418 3.9544 1.7983 5.5962 0.35005 2.1731-1.9176 4.9674-2.9739 7.8685-2.9739z"/>
   <path d="m97.456 81.981c-1.6434 1.4498-1.7998 3.9544-0.35005 5.5978 1.4482 1.6418 3.9544 1.7983 5.5962 0.3485 2.1731-1.916 4.9674-2.9724 7.8685-2.9724 2.9011 0 5.6954 1.0548 7.8685 2.9724 1.6465 1.4529 4.1526 1.2887 5.5978-0.3485 1.4482-1.6434 1.2918-4.148-0.35006-5.5978-3.6229-3.197-8.282-4.9565-13.116-4.9565-4.8342 0-9.4917 1.7596-13.115 4.9565z"/>
   <path d="m70.918 61.164h47.583c2.1902 0 3.9652-1.7751 3.9652-3.9652s-1.775-3.9652-3.9652-3.9652h-47.583c-2.1902 0-3.9652 1.7751-3.9652 3.9652s1.7751 3.9652 3.9652 3.9652z"/>
   <path d="m140.71 192.02c0 2.1902 1.7751 3.9652 3.9652 3.9652h47.583c2.1902 0 3.9652-1.7751 3.9652-3.9652 0-15.305-12.452-27.757-27.757-27.757s-27.757 12.452-27.757 27.757zm27.757-19.826c9.5738 0 17.586 6.823 19.428 15.861h-38.856c1.8416-9.0379 9.8542-15.861 19.428-15.861z"/>
   <path d="m200.12 137.49c-2.1731 1.9176-4.9674 2.9739-7.8685 2.9739s-5.6954-1.0564-7.8685-2.9739c-1.6418-1.4482-4.148-1.2918-5.5962 0.35006-1.4498 1.6418-1.2933 4.148 0.35006 5.5962 3.6229 3.197 8.2805 4.9581 13.115 4.9581s9.4918-1.7611 13.115-4.9581c1.6434-1.4482 1.7998-3.9544 0.35006-5.5962-1.4482-1.6418-3.9544-1.7983-5.5962-0.35006z"/>
   <path d="m176.39 116.68h23.791c2.1902 0 3.9652-1.775 3.9652-3.9652 0-2.1902-1.775-3.9652-3.9652-3.9652h-23.791c-2.1902 0-3.9652 1.7751-3.9652 3.9652 0 2.1902 1.775 3.9652 3.9652 3.9652z"/>
  </g>
 </g>
</svg>
