<?xml version="1.0" encoding="UTF-8"?>
<svg id="lean" width="512" height="512" enable-background="new 0 0 256 256" version="1.1" viewBox="0 0 256 256" xmlns="http://www.w3.org/2000/svg" xmlns:cc="http://creativecommons.org/ns#" xmlns:dc="http://purl.org/dc/elements/1.1/" xmlns:rdf="http://www.w3.org/1999/02/22-rdf-syntax-ns#">
 <metadata>
  <rdf:RDF>
   <cc:Work rdf:about="">
    <dc:format>image/svg+xml</dc:format>
    <dc:type rdf:resource="http://purl.org/dc/dcmitype/StillImage"/>
    <dc:title/>
   </cc:Work>
  </rdf:RDF>
 </metadata>
 <g transform="matrix(.98516 0 0 .98516 .44942 3.7791)">
  <rect x="3.0938" y="-.28608" width="252.76" height="252.76" ry="38.886" fill="#fff" fill-rule="evenodd" stroke="#3a312a" stroke-width="6.0848"/>
  <g transform="matrix(.73771 0 0 .73771 66.627 15.337)">
   <g stroke-width=".50753">
    <circle cx="-8.192" cy="245.27" r="20.301" fill="#41d3bd"/>
    <path d="m20.23 245.27c0-8.9366-4.1536-16.911-10.622-22.124 7.2963-13.476 20.512-21.113 34.536-29.096 10.122-5.7615 20.59-11.718 28.836-20.151 2.7325-2.7975 5.3676-5.5625 7.5805-8.6158 10.41-14.361 16.59-31.828 17.39-49.178 0.25986-5.6316 0.0609-12.968-3.5771-20.054l13.366 6.6832 3.6339-7.2638-24.361-12.181c-1.0557-0.52783-2.2819-0.56844-3.37-0.11775-1.0882 0.45069-1.9286 1.3521-2.294 2.4646l-8.1205 24.361 7.6982 2.5701 5.0469-15.145c0.38572 0.77145 0.73896 1.4698 1.0313 2.0139 2.3143 4.3242 3.1629 9.2005 2.8341 16.294-0.73085 15.786-6.3584 31.69-15.851 44.785-1.8921 2.6067-4.3039 5.1322-6.8172 7.7023-7.4465 7.6211-16.964 13.037-27.041 18.771-14.341 8.1611-29.059 16.675-37.488 32.011-3.3456-1.3805-6.9999-2.1519-10.833-2.1519-15.668 0-28.422 12.753-28.422 28.422 0 15.668 12.753 28.422 28.422 28.422 15.668 0 28.422-12.753 28.422-28.422zm-28.422-20.301c11.194 0 20.301 9.1071 20.301 20.301s-9.1071 20.301-20.301 20.301c-11.194 0-20.301-9.1071-20.301-20.301s9.1071-20.301 20.301-20.301z" fill="#11222b"/>
    <circle cx="105.49" cy="204.67" r="20.301" fill="#41d3bd"/>
    <path d="m105.49 176.25c-15.669 0-28.422 12.753-28.422 28.422 0 15.668 12.753 28.422 28.422 28.422 15.668 0 28.422-12.753 28.422-28.422 0-15.668-12.753-28.422-28.422-28.422zm0 48.723c-11.194 0-20.301-9.1071-20.301-20.301s9.1071-20.301 20.301-20.301c11.194 0 20.301 9.1071 20.301 20.301s-9.1071 20.301-20.301 20.301z" fill="#11222b"/>
    <circle cx="154.22" cy="131.59" r="20.301" fill="#41d3bd"/>
    <path d="m154.22 160.01c15.668 0 28.422-12.753 28.422-28.422 0-15.668-12.753-28.422-28.422-28.422-15.668 0-28.422 12.753-28.422 28.422 0 15.668 12.753 28.422 28.422 28.422zm0-48.723c11.194 0 20.301 9.1071 20.301 20.301 0 11.194-9.1071 20.301-20.301 20.301s-20.301-9.1071-20.301-20.301c0-11.194 9.1071-20.301 20.301-20.301z" fill="#11222b"/>
    <circle cx="12.109" cy="123.46" r="20.301" fill="#41d3bd"/>
   </g>
   <g transform="matrix(.50753 0 0 .50753 -39.487 25.457)" fill="#11222b">
    <path d="m101.66 249.11c30.872 0 56-25.128 56-56s-25.128-56-56-56-56 25.128-56 56 25.128 56 56 56zm0-96c22.056 0 40 17.944 40 40s-17.944 40-40 40-40-17.944-40-40 17.944-40 40-40z"/>
    <path d="m177.61 11.802c2.256 3.016 5.2 7.376 8.512 12.624l13.528-8.544c-3.584-5.68-6.704-10.288-9.264-13.688z"/>
    <path d="m194.32 37.914c2.576 4.384 5.232 9.008 7.888 13.744l13.952-7.832c-2.704-4.832-5.424-9.56-8.064-14.04z"/>
    <path d="m209.84 65.562c2.536 4.768 5.016 9.504 7.336 14.064l14.264-7.248c-2.368-4.656-4.888-9.488-7.496-14.344z"/>
    <path d="m245.16 102.31c-1.536-4.128-3.744-9.272-6.552-15.312l-14.496 6.768c2.632 5.648 4.672 10.408 6.072 14.144z"/>
   </g>
   <g transform="matrix(.50753 0 0 .50753 -39.487 25.457)" fill="#e07a5f">
    <g transform="matrix(.7071 -.7071 .7071 .7071 -15.832 53.778)">
     <rect x="101.01" y="487.07" width="16" height="113.12"/>
     <rect x="52.441" y="535.64" width="113.12" height="16"/>
    </g>
    <g transform="matrix(.7071 -.7071 .7071 .7071 -2.9 7)">
     <rect x="-3.439" y="7.54" width="16" height="113.12"/>
     <rect x="-52.007" y="56.108" width="113.12" height="16"/>
    </g>
    <g transform="matrix(.7071 -.7071 .7071 .7071 7.04 40.991)">
     <rect x="245.51" y="264.99" width="16" height="113.12"/>
     <rect x="196.95" y="313.56" width="113.12" height="16"/>
    </g>
   </g>
  </g>
 </g>
</svg>
