<?xml version="1.0" encoding="UTF-8"?>
<svg id="lean" width="512" height="512" enable-background="new 0 0 256 256" version="1.1" viewBox="0 0 256 256" xmlns="http://www.w3.org/2000/svg" xmlns:cc="http://creativecommons.org/ns#" xmlns:dc="http://purl.org/dc/elements/1.1/" xmlns:rdf="http://www.w3.org/1999/02/22-rdf-syntax-ns#">
 <metadata>
  <rdf:RDF>
   <cc:Work rdf:about="">
    <dc:format>image/svg+xml</dc:format>
    <dc:type rdf:resource="http://purl.org/dc/dcmitype/StillImage"/>
    <dc:title/>
   </cc:Work>
  </rdf:RDF>
 </metadata>
 <g transform="matrix(.98516 0 0 .98516 .44942 3.7791)">
  <rect x="3.0938" y="-.28608" width="252.76" height="252.76" ry="38.886" fill="#fff" fill-rule="evenodd" stroke="#3a312a" stroke-width="6.0848"/>
  <g id="Icons" transform="matrix(4.9024 0 0 4.9024 11.826 8.4347)">
   <path d="m22.33 18.221s-7.0478-2.7373-10.437 3.9092l-3.3781 11.481s-2.8612 4.401 11.759 4.4832l7.2485 0.21794s12.833 0.83412 11.883-4.7011c-0.9502-5.5352-3.4382-12.138-3.4382-12.138s-4.2714-5.7199-9.9704-3.3242v0.89416h-3.6672z" fill="#464747"/>
   <path d="m22.391 29.754-3.213 4.1728s0.61825 0.69578 0.42955 1.6918h8.7679s-0.24162-1.0875 0.55432-1.5899l-3.4831-4.2746z" fill="#b2b2b2"/>
   <path d="m21.029 20.886c-1.2669-0.4255-3.2678-0.71552-5.1267 0.64193-0.15579 0.11382-0.29901 0.24843-0.42424 0.39513-0.56572 0.66291-1.9306 2.587 0.21149 3.658 0 0 3.0421 0.79414 5.3852-0.02921 0.89519-0.31458 1.564-1.1129 1.6696-2.0559 0.0015-0.01393 3e-3 -0.02804 0.0044-0.04216 0.1145-1.1389-0.63477-2.2033-1.7198-2.5678z" fill="none" stroke="#303030" stroke-linecap="round" stroke-linejoin="round" stroke-miterlimit="10" stroke-width=".75"/>
   <path d="m21.029 20.886c-1.2669-0.4255-3.2678-0.71552-5.1267 0.64193-0.15579 0.11382-0.29901 0.24843-0.42424 0.39513-0.56572 0.66291-1.9306 2.587 0.21149 3.658 0 0 3.0421 0.79414 5.3852-0.02921 0.89519-0.31458 1.564-1.1129 1.6696-2.0559 0.0015-0.01393 3e-3 -0.02804 0.0044-0.04216 0.1145-1.1389-0.63477-2.2033-1.7198-2.5678z" fill="#707070"/>
   <path d="m27.467 20.886c1.2669-0.4255 3.2679-0.71552 5.1267 0.64193 0.1558 0.11382 0.29911 0.24843 0.42434 0.39513 0.56572 0.66291 1.9306 2.587-0.21148 3.658 0 0-3.0422 0.79414-5.3852-0.02921-0.89529-0.31458-1.5641-1.1129-1.6696-2.0559-0.0015-0.01393-0.0031-0.02804-0.0044-0.04216-0.11459-1.1389 0.63467-2.2033 1.7197-2.5678z" fill="#707070"/>
   <g fill="#c9c9c9">
    <polygon points="24.06 26.147 22.391 27.585 22.391 29.754 25.605 29.754 25.605 27.679"/>
    <circle cx="18.235" cy="35.2" r="1.4381"/>
    <circle cx="29.761" cy="35.2" r="1.4381"/>
   </g>
   <path d="m29.378 36.584-5.1851 4.8307-5.6393-4.7771s0.8685-0.12153 1.0541-1.0195h8.7679c-1e-5 0-0.38853 0.99424 1.0024 0.96589z" fill="#707070"/>
   <path d="m27.467 20.886c1.2669-0.4255 3.2679-0.71552 5.1267 0.64193 0.1558 0.11382 0.29911 0.24843 0.42434 0.39513 0.56572 0.66291 1.9306 2.587-0.21148 3.658 0 0-3.0422 0.79414-5.3852-0.02921-0.89529-0.31458-1.5641-1.1129-1.6696-2.0559-0.0015-0.01393-0.0031-0.02804-0.0044-0.04216-0.11459-1.1389 0.63467-2.2033 1.7197-2.5678z" fill="none" stroke="#303030" stroke-linecap="round" stroke-linejoin="round" stroke-miterlimit="10" stroke-width=".75"/>
   <path d="m12.453 21.079s-0.55941-11.761 9.7776-13.054c10.702-1.3393 14.636 7.8376 13.737 13.448 0 0-3.9131-5.7884-9.9704-3.3242v0.89416h-3.6672v-0.82204c1e-5 0-5.6313-2.3325-9.8772 2.8577z" fill="#707070"/>
   <rect x="22.33" y="6.5852" width="3.6672" height="12.458" fill="#b2b2b2"/>
   <g fill="none" stroke="#303030" stroke-linecap="round" stroke-linejoin="round" stroke-miterlimit="10" stroke-width=".75">
    <path d="m26.302 8.0251c11.247 2.2822 9.9412 13.877 9.9412 13.877l3.1719 10.802c0.99606 3.8682-3.0172 4.5258-3.0172 4.5258-2.8044 0.77364-5.9377 1.1218-9.0129 1.2088"/>
    <path d="m20.528 38.313c-5.1447-0.33847-9.0032-1.0831-9.0032-1.0831-3.9165-1.0541-3.0075-3.6168-3.0075-3.6168l3.6844-12.136c0-12.088 10.028-13.452 10.028-13.452"/>
    <path d="m12.199 21.474s2.7264-5.0422 9.6788-3.5854"/>
    <path d="m36.245 21.907s-3.1648-5.7268-9.8462-4.069"/>
    <rect x="22.33" y="6.5852" width="3.6672" height="12.458"/>
    <path d="m21.029 20.886c-1.2669-0.4255-3.2678-0.71552-5.1267 0.64193-0.15579 0.11382-0.29901 0.24843-0.42424 0.39513-0.56572 0.66291-1.9306 2.587 0.21149 3.658 0 0 3.0421 0.79414 5.3852-0.02921 0.89519-0.31458 1.564-1.1129 1.6696-2.0559 0.0015-0.01393 3e-3 -0.02804 0.0044-0.04216 0.1145-1.1389-0.63477-2.2033-1.7198-2.5678z"/>
    <path d="m27.467 20.886c1.2669-0.4255 3.2679-0.71552 5.1267 0.64193 0.1558 0.11382 0.29911 0.24843 0.42434 0.39513 0.56572 0.66291 1.9306 2.587-0.21148 3.658 0 0-3.0422 0.79414-5.3852-0.02921-0.89529-0.31458-1.5641-1.1129-1.6696-2.0559-0.0015-0.01393-0.0031-0.02804-0.0044-0.04216-0.11459-1.1389 0.63467-2.2033 1.7197-2.5678z"/>
    <polygon points="24.06 26.147 22.391 27.585 22.391 29.754 25.605 29.754 25.605 27.679"/>
    <line x1="22.391" x2="19.178" y1="29.754" y2="33.927"/>
    <circle cx="18.235" cy="35.2" r="1.4381"/>
    <line x1="17.254" x2="15.1" y1="34.15" y2="30.791"/>
    <line x1="25.605" x2="28.818" y1="29.754" y2="33.927"/>
    <circle cx="29.761" cy="35.2" r="1.4381"/>
    <line x1="30.743" x2="32.897" y1="34.15" y2="30.791"/>
    <line x1="19.608" x2="28.376" y1="35.618" y2="35.618"/>
    <line x1="21.245" x2="21.245" y1="31.407" y2="35.618"/>
    <line x1="23.038" x2="23.038" y1="30.126" y2="35.618"/>
    <line x1="26.785" x2="26.785" y1="31.407" y2="35.618"/>
    <line x1="24.891" x2="24.891" y1="30.126" y2="35.618"/>
    <path d="m8.5153 33.612s2.6605 1.0914 4.6242 1.0914"/>
    <path d="m39.406 33.612s-2.6605 1.0914-4.6242 1.0914"/>
    <polyline points="18.554 36.638 24.193 41.415 29.378 36.584"/>
    <path d="m22.23 10.079s-3.737 1.0476-5.1919 3.7875"/>
    <line x1="16.177" x2="15.704" y1="15.317" y2="16.203"/>
    <path d="m25.997 10.079s2.9333 0.60508 4.0673 1.5701"/>
    <path d="m22.23 24.728s-1.7915 2.8583-5.6294 2.7677"/>
    <path d="m26.302 24.772s1.7914 2.8136 5.6294 2.723"/>
    <line x1="10.647" x2="13.139" y1="34.158" y2="25.925"/>
    <line x1="37.836" x2="35.344" y1="34.158" y2="25.925"/>
   </g>
  </g>
 </g>
</svg>
