<?xml version="1.0" encoding="UTF-8"?>
<svg id="lean" width="512" height="512" enable-background="new 0 0 256 256" version="1.1" viewBox="0 0 256 256" xmlns="http://www.w3.org/2000/svg" xmlns:cc="http://creativecommons.org/ns#" xmlns:dc="http://purl.org/dc/elements/1.1/" xmlns:rdf="http://www.w3.org/1999/02/22-rdf-syntax-ns#">
 <metadata>
  <rdf:RDF>
   <cc:Work rdf:about="">
    <dc:format>image/svg+xml</dc:format>
    <dc:type rdf:resource="http://purl.org/dc/dcmitype/StillImage"/>
    <dc:title/>
   </cc:Work>
  </rdf:RDF>
 </metadata>
 <g transform="matrix(.98516 0 0 .98516 .44942 3.7791)">
  <rect x="3.0938" y="-.28608" width="252.76" height="252.76" ry="38.886" fill="#fff" fill-rule="evenodd" stroke="#3a312a" stroke-width="6.0848"/>
 </g>
 <g transform="matrix(.71132 0 0 .71132 27.692 29.235)">
  <g stroke-width="4">
   <path d="m65.017 158.85v88c0 6.64-5.36 12-12 12-3.32 0-6.32-1.36-8.48-3.52s-3.52-5.16-3.52-8.48v-88z" fill="#838f9b"/>
   <path d="m89.017 170.85v76c0 3.32-1.36 6.32-3.52 8.48s-5.16 3.52-8.48 3.52c-6.64 0-12-5.36-12-12v-88h24z" fill="#838f9b"/>
   <path d="m89.017 158.85h-48v12h-4c-8.84 0-16-7.16-16-16v-36c0-22.96 17.56-41.8 39.96-43.8l-7.96 31.8 12 16 12-16-7.96-31.8c10.52 0.92 20 5.6 27.08 12.68 7.96 7.96 12.88 18.96 12.88 31.12v36c0 8.84-7.16 16-16 16h-4z" fill="#fcd770"/>
   <path d="m69.057 75.047 7.96 31.8-12 16-12-16 7.96-31.8c1.36-0.12 2.68-0.2 4.04-0.2s2.68 0.08 4.04 0.2z" fill="#5cd6b3"/>
   <circle cx="65.017" cy="46.847" r="28" fill="#f0d0b4"/>
  </g>
  <g fill="#ffeaa7" stroke-width="4">
   <path d="m145.02 18.847 28 32h-12v28h-32v-28h-12z"/>
   <path d="m225.02 18.847 28 32h-12v28h-32v-28h-12z"/>
   <path d="m253.02 226.85-28 32-28-32h12v-28h32v28z"/>
   <path d="m173.02 226.85-28 32-28-32h12v-28h32v28z"/>
  </g>
  <path d="m253.02 186.85h-136c-4.42 0-8-3.58-8-8v-80c0-4.42 3.58-8 8-8h136c4.42 0 8 3.58 8 8v80c0 4.42-3.58 8-8 8z" fill="#e6e9ed" stroke-width="4"/>
  <g transform="matrix(4 0 0 4 13.017 10.847)" fill="#5cd6b3">
   <path d="m57 26v4h-4v-4h2z"/>
   <path d="m49 34v4h-4v-4h2z"/>
   <path d="m41 28v4h-4v-4h2z"/>
   <path d="m33 30v4h-4v-4h2z"/>
  </g>
  <g stroke-width="4">
   <path d="m141.02 102.85h-8v24h-8v24h8v24h8v-24h8v-24h-8zm0 40h-8v-8h8z"/>
   <path d="m173.02 102.85h-8v16h-8v24h8v32h8v-32h8v-24h-8zm0 32h-8v-8h8z"/>
   <path d="m205.02 102.85h-8v40h-8v24h8v8h8v-8h8v-24h-8zm0 56h-8v-8h8z"/>
   <path d="m237.02 102.85h-8v8h-8v24h8v40h8v-40h8v-24h-8zm0 24h-8v-8h8z"/>
   <path d="m253.02 86.847h-136c-4.908 0-9.124 2.968-10.984 7.2-5.54-9.128-14.012-16.252-24.124-20.072 9.052-5.66 15.108-15.688 15.108-27.128 0-17.644-14.356-32-32-32s-32 14.356-32 32c0 11.44 6.056 21.468 15.108 27.128-18.144 6.856-31.108 24.356-31.108 44.872v36c0 11.028 8.972 20 20 20v72c0 8.824 7.176 16 16 16 4.8 0 9.064-2.168 12-5.528 2.936 3.36 7.2 5.528 12 5.528 8.824 0 16-7.176 16-16v-72c4.52 0 8.648-1.564 12-4.104v8.104c0 6.616 5.384 12 12 12h136c6.616 0 12-5.384 12-12v-80c0-6.616-5.384-12-12-12zm-180.34 19.124-7.66 10.208-7.66-10.212 6.772-27.08c0.3 0 0.588-0.04 0.888-0.04s0.588 0.04 0.888 0.044zm-31.66-59.124c0-13.236 10.764-24 24-24s24 10.764 24 24-10.764 24-24 24-24-10.764-24-24zm12 208c-4.412 0-8-3.588-8-8v-84h16v84c0 4.412-3.588 8-8 8zm24 0c-4.412 0-8-3.588-8-8v-84h16v84c0 4.412-3.588 8-8 8zm16-88v-56h-8v44h-40v-44h-8v56c-6.616 0-12-5.384-12-12v-36c0-18.808 13.064-34.584 30.584-38.836l-6.928 27.712 16.344 21.792 16.34-21.788-6.928-27.712c17.524 4.248 30.588 20.024 30.588 38.832v36c0 6.616-5.384 12-12 12zm164 12c0 2.204-1.796 4-4 4h-136c-2.204 0-4-1.796-4-4v-80c0-2.204 1.796-4 4-4h136c2.204 0 4 1.796 4 4z"/>
   <path d="m205.02 78.847h8v-32h-7.184l19.184-21.924 19.184 21.924h-7.184v16h8v-8h16.816l-36.816-42.076-36.816 42.076h16.816z"/>
   <path d="m237.02 70.847h8v8h-8z"/>
   <path d="m125.02 78.847h8v-32h-7.184l19.184-21.924 19.184 21.924h-7.184v16h8v-8h16.816l-36.816-42.076-36.816 42.076h16.816z"/>
   <path d="m157.02 70.847h8v8h-8z"/>
   <path d="m245.02 214.85h-8v16h7.184l-19.184 21.924-19.184-21.924h7.184v-32h-8v24h-16.816l36.816 42.076 36.816-42.076h-16.816z"/>
   <path d="m237.02 198.85h8v8h-8z"/>
   <path d="m165.02 214.85h-8v16h7.184l-19.184 21.924-19.184-21.924h7.184v-32h-8v24h-16.816l36.816 42.076 36.816-42.076h-16.816z"/>
   <path d="m157.02 198.85h8v8h-8z"/>
  </g>
 </g>
</svg>
