<?xml version="1.0" encoding="UTF-8"?>
<svg id="lean" width="512" height="512" enable-background="new 0 0 256 256" version="1.1" viewBox="0 0 256 256" xmlns="http://www.w3.org/2000/svg" xmlns:cc="http://creativecommons.org/ns#" xmlns:dc="http://purl.org/dc/elements/1.1/" xmlns:rdf="http://www.w3.org/1999/02/22-rdf-syntax-ns#">
 <metadata>
  <rdf:RDF>
   <cc:Work rdf:about="">
    <dc:format>image/svg+xml</dc:format>
    <dc:type rdf:resource="http://purl.org/dc/dcmitype/StillImage"/>
    <dc:title/>
   </cc:Work>
  </rdf:RDF>
 </metadata>
 <g transform="matrix(.98516 0 0 .98516 .44942 3.7791)">
  <rect x="3.0938" y="-.28608" width="252.76" height="252.76" ry="38.886" fill="#fff" fill-rule="evenodd" stroke="#3a312a" stroke-width="6.0848"/>
  <g transform="matrix(3.1848 0 0 3.1848 27.738 24.49)">
   <path d="m61 50-8 5v-3h-25c4.71 0 9.07-1.48 12.65-4h12.35v-3z" fill="#fcd770"/>
   <path d="m46.79 18.56-3.43 2.09c-3.16-5.18-8.85-8.65-15.36-8.65-9.94 0-18 8.06-18 18h3l-5 8-5-8h3c0-12.15 9.85-22 22-22 7.96 0 14.93 4.23 18.79 10.56z" fill="#ffeaa7"/>
   <path d="m40.65 48c-3.58 2.52-7.94 4-12.65 4h-27v-4h27c9.94 0 18-8.06 18-18h-3l5-8 5 8h-3c0 7.44-3.7 14.02-9.35 18z" fill="#ffeaa7"/>
   <path d="m16 40v-14h24v14c0 1.1-0.9 2-2 2h-20c-1.1 0-2-0.9-2-2z" fill="#e6e9ed"/>
   <path d="m24 20h16v6h-24v-6h4z" fill="#ff826e"/>
   <path d="m62.887 50-10.887-6.804v3.804h-8.533c4.393-4 7.239-9.671 7.512-16h3.826l-6.805-10.887-6.805 10.887h3.775c-0.229 3.934-1.805 7.509-4.268 10.28 0.186-0.39 0.298-0.82 0.298-1.28v-20.92c0.546 0.653 1.053 1.348 1.507 2.091l0.521 0.853 5.142-3.13-0.521-0.854c-4.217-6.913-11.563-11.04-19.649-11.04-12.347 0-22.453 9.78-22.979 22h-3.826l6.805 10.887 6.805-10.887h-3.775c0.22-3.769 1.683-7.204 3.971-9.923v20.923c0 1.654 1.346 3 3 3h20c0.44 0 0.854-0.1 1.231-0.271-3 2.649-6.926 4.271-11.232 4.271h-17v2h17c10.477 0 19-8.523 19-19v-1h-2.195l3.195-5.113 3.195 5.113h-2.195v1c0 11.58-9.421 21-21 21h-27v2h51v3.804zm-41.887-27v-2h2v2h2v-2h2v2h2v-2h2v2h2v-2h2v2h2v-2h2v4h-22v-4h2v2zm-12 7v1h2.195l-3.195 5.113-3.195-5.113h2.195v-1c0-11.58 9.421-21 21-21 7.049 0 13.48 3.435 17.399 9.238l-1.728 1.052c-3.553-5.209-9.34-8.29-15.671-8.29-10.477 0-19 8.523-19 19zm6.062-11c3.121-3.665 7.759-6 12.938-6 5.059 0 9.725 2.207 12.932 6h-3.932v-2h-2v2h-2v-2h-2v2h-2v-2h-2v2h-2v-2h-2v2h-2v-2h-2v2zm22.938 22h-20c-0.552 0-1-0.449-1-1v-13h22v13c0 0.551-0.448 1-1 1zm-0.636 10c1.255-0.562 2.449-1.232 3.573-2h13.063v-2.196l5.113 3.196-5.113 3.196v-2.196z"/>
   <path d="m7 47h2v2h-2z"/>
   <path d="m3 47h2v2h-2z"/>
   <path d="m35 29h2v2h-2z"/>
   <path d="m31 29h2v2h-2z"/>
   <path d="m27 29h2v2h-2z"/>
   <path d="m23 29h2v2h-2z"/>
   <path d="m19 29h2v2h-2z"/>
   <path d="m35 33h2v2h-2z"/>
   <path d="m31 33h2v2h-2z"/>
   <path d="m27 33h2v2h-2z"/>
   <path d="m23 33h2v2h-2z"/>
   <path d="m19 33h2v2h-2z"/>
   <path d="m35 37h2v2h-2z"/>
   <path d="m31 37h2v2h-2z"/>
   <path d="m27 37h2v2h-2z"/>
   <path d="m23 37h2v2h-2z"/>
   <path d="m19 37h2v2h-2z"/>
  </g>
 </g>
</svg>
