<?xml version="1.0" encoding="UTF-8" standalone="no"?>
<svg
   xmlns:dc="http://purl.org/dc/elements/1.1/"
   xmlns:cc="http://creativecommons.org/ns#"
   xmlns:rdf="http://www.w3.org/1999/02/22-rdf-syntax-ns#"
   xmlns:svg="http://www.w3.org/2000/svg"
   xmlns="http://www.w3.org/2000/svg"
   xmlns:sodipodi="http://sodipodi.sourceforge.net/DTD/sodipodi-0.dtd"
   xmlns:inkscape="http://www.inkscape.org/namespaces/inkscape"
   id="lean"
   enable-background="new 0 0 256 256"
   height="512"
   viewBox="0 0 256 256"
   width="512"
   version="1.1"
   sodipodi:docname="scrum-guide.svg"
   inkscape:version="0.92.4 (5da689c313, 2019-01-14)">
  <metadata
     id="metadata21">
    <rdf:RDF>
      <cc:Work
         rdf:about="">
        <dc:format>image/svg+xml</dc:format>
        <dc:type
           rdf:resource="http://purl.org/dc/dcmitype/StillImage" />
        <dc:title></dc:title>
      </cc:Work>
    </rdf:RDF>
  </metadata>
  <defs
     id="defs19" />
  <sodipodi:namedview
     pagecolor="#ffffff"
     bordercolor="#666666"
     borderopacity="1"
     objecttolerance="10"
     gridtolerance="10"
     guidetolerance="10"
     inkscape:pageopacity="0"
     inkscape:pageshadow="2"
     inkscape:window-width="1920"
     inkscape:window-height="986"
     id="namedview17"
     showgrid="false"
     inkscape:zoom="1.3037281"
     inkscape:cx="128.95314"
     inkscape:cy="261.57083"
     inkscape:window-x="-11"
     inkscape:window-y="-11"
     inkscape:window-maximized="1"
     inkscape:current-layer="g858" />
  <g
     id="g858"
     inkscape:transform-center-x="-122.79306"
     inkscape:transform-center-y="-126.94913"
     transform="matrix(0.98516163,0,0,0.98516163,0.44941633,3.7790961)">
    <rect
       ry="38.885532"
       y="-0.37479836"
       x="3.010077"
       height="252.75597"
       width="252.75597"
       id="rect831"
       style="fill:#ffffff;fill-rule:evenodd;stroke:#3a312a;stroke-width:6.08481216;stroke-miterlimit:4;stroke-dasharray:none;stroke-opacity:1;fill-opacity:1" />
    <g
       transform="matrix(0.38876258,0,0,0.38876258,32.109349,31.652636)"
       id="g81">
      <g
         id="g53">
        <g
           id="XMLID_1092_">
          <g
             id="g4">
            <path
               style="fill:#f47c7c"
               inkscape:connector-curvature="0"
               d="m 331.419,33.828 v 397.92 l -299.76,-1.26 v -136.58 -192.36 -69.94 c 0,-13.31 10.79,-24.11 24.11,-24.11 h 251.54 c 13.31,0 24.11,10.8 24.11,24.11 z"
               id="path2" />
          </g>
        </g>
        <path
           style="fill:#ee6161"
           inkscape:connector-curvature="0"
           d="m 92.515,430.488 v -136.58 -192.36 -69.94 c 0,-13.31 10.79,-24.11 24.11,-24.11 H 55.769 c -13.32,0 -24.11,10.8 -24.11,24.11 v 69.94 192.36 136.58 l 299.76,1.26 v -0.256 z"
           id="path7" />
        <path
           style="fill:#fdd79b"
           inkscape:connector-curvature="0"
           d="M 275.309,462.588 H 64.388 c -17.998,0 -33.069,-14.729 -32.725,-32.723 0.333,-17.438 14.573,-31.471 32.091,-31.471 h 211.555 53.774 v 64.194 z"
           id="path9" />
        <path
           style="fill:#fccd7f"
           inkscape:connector-curvature="0"
           d="m 64.251,429.865 c 0.333,-17.438 14.573,-31.471 32.091,-31.471 H 63.754 c -17.518,0 -31.758,14.033 -32.091,31.471 -0.344,17.994 14.728,32.723 32.725,32.723 h 32.588 c -17.998,0 -33.07,-14.729 -32.725,-32.723 z"
           id="path11" />
        <path
           style="fill:#f47c7c"
           inkscape:connector-curvature="0"
           d="m 168.059,501.932 -22.889,-11.415 -22.889,11.415 c -1.804,0.9 -3.924,-0.412 -3.924,-2.428 V 431.75 h 53.625 v 67.754 c 0.001,2.016 -2.12,3.327 -3.923,2.428 z"
           id="path13" />
        <path
           style="fill:#f9f7f8"
           inkscape:connector-curvature="0"
           d="M 240.44,365.443 H 84.151 c -4.611,0 -8.349,-3.738 -8.349,-8.349 V 328.91 c 0,-4.611 3.738,-8.349 8.349,-8.349 h 105.803 53.004 32.351 v 37.812 c 0,4.017 -3.27,7.266 -7.286,7.241 z"
           id="path15" />
        <path
           style="fill:#efedef"
           inkscape:connector-curvature="0"
           d="m 84.151,365.443 h 8.365 v -44.881 h -8.365 c -4.611,0 -8.349,3.738 -8.349,8.349 v 28.184 c 0,4.61 3.738,8.348 8.349,8.348 z"
           id="path17" />
        <g
           id="XMLID_1093_">
          <g
             id="g23">
            <g
               id="g21">
              <path
                 style="fill:#f9f7f8"
                 inkscape:connector-curvature="0"
                 d="m 275.309,80.288 v 120.06 h -121.81 -70.2 c -4.14,0 -7.5,-3.36 -7.5,-7.5 V 87.788 c 0,-4.15 3.36,-7.5 7.5,-7.5 h 128.2 z"
                 id="path19" />
            </g>
          </g>
        </g>
        <path
           style="fill:#efedef"
           inkscape:connector-curvature="0"
           d="m 83.299,200.348 h 9.216 v -98.8 -21.26 h -9.216 c -4.14,0 -7.5,3.35 -7.5,7.5 v 105.06 c 0,4.14 3.36,7.5 7.5,7.5 z"
           id="path26" />
        <path
           style="fill:#d7d0d6"
           inkscape:connector-curvature="0"
           d="m 357.529,451.765 v -93.597 -78.89 h -52.22 v 78.89 93.597 z"
           id="path28" />
        <path
           style="fill:#c9bfc8"
           inkscape:connector-curvature="0"
           d="m 332.61,279.278 h -27.301 v 78.89 93.597 h 27.301 v -93.597 z"
           id="path30" />
        <circle
           style="fill:#efedef"
           cx="331.41699"
           cy="212.142"
           r="148.314"
           id="circle32" />
        <path
           style="fill:#e5e1e5"
           inkscape:connector-curvature="0"
           d="m 263.84,212.142 c 0,-67.918 45.653,-125.171 107.946,-142.751 -12.835,-3.623 -26.375,-5.563 -40.369,-5.563 -81.912,0 -148.314,66.402 -148.314,148.314 0,81.912 66.403,148.314 148.314,148.314 13.994,0 27.534,-1.94 40.369,-5.563 C 309.493,337.313 263.84,280.06 263.84,212.142 Z"
           id="path34" />
        <circle
           style="fill:#d4f2f6"
           cx="331.41699"
           cy="212.142"
           r="114.605"
           id="circle36" />
        <path
           style="fill:#a6e7f0"
           inkscape:connector-curvature="0"
           d="m 316.914,98.447 c -56.447,7.129 -100.102,55.313 -100.102,113.695 0,58.382 43.655,106.567 100.102,113.695 -32.445,-27.206 -53.074,-68.041 -53.074,-113.695 0,-45.654 20.629,-86.489 53.074,-113.695 z"
           id="path38" />
        <g
           id="XMLID_1095_">
          <g
             id="g42">
            <path
               style="fill:#c9bfc8"
               inkscape:connector-curvature="0"
               d="m 357.529,440.128 v 25.87 c 0,10.16 -8.24,18.39 -18.39,18.39 h -15.44 c -10.16,0 -18.39,-8.23 -18.39,-18.39 v -25.87 z"
               id="path40" />
          </g>
        </g>
        <path
           style="fill:#baafb9"
           inkscape:connector-curvature="0"
           d="m 332.61,465.999 v -25.87 h -27.301 v 25.87 c 0,10.16 8.23,18.39 18.39,18.39 h 15.44 c 2.077,0 4.092,-0.351 5.954,-0.986 -7.243,-2.469 -12.483,-9.323 -12.483,-17.404 z"
           id="path45" />
        <g
           style="fill:#fed402"
           id="g51">
          <path
             inkscape:connector-curvature="0"
             d="m 340.573,285.465 h -20.867 c -4.409,0 -8.076,-3.392 -8.419,-7.788 l -5.319,-68.231 c -0.383,-4.908 3.496,-9.101 8.419,-9.101 h 31.505 c 4.922,0 8.802,4.193 8.419,9.101 l -5.319,68.231 c -0.342,4.396 -4.01,7.788 -8.419,7.788 z"
             id="path47" />
          <path
             inkscape:connector-curvature="0"
             d="m 345.157,169.845 h -32.149 c -4.252,0 -7.699,-3.447 -7.699,-7.699 v -18.033 c 0,-4.252 3.447,-7.699 7.699,-7.699 h 32.149 c 4.252,0 7.699,3.447 7.699,7.699 v 18.033 c 0.001,4.252 -3.446,7.699 -7.699,7.699 z"
             id="path49" />
        </g>
      </g>
      <g
         id="g79">
        <path
           inkscape:connector-curvature="0"
           d="m 275.309,455.088 h -73.327 c -4.142,0 -7.5,3.357 -7.5,7.5 0,4.143 3.358,7.5 7.5,7.5 h 73.327 c 4.143,0 7.5,-3.357 7.5,-7.5 0,-4.143 -3.357,-7.5 -7.5,-7.5 z"
           id="path55" />
        <path
           inkscape:connector-curvature="0"
           d="M 275.309,390.894 H 63.754 c -9.251,0 -17.814,3.254 -24.597,8.669 V 31.612 C 39.157,22.452 46.609,15 55.769,15 h 251.536 c 9.16,0 16.612,7.452 16.612,16.612 v 2.216 c 0,4.143 3.357,7.5 7.5,7.5 4.143,0 7.5,-3.357 7.5,-7.5 V 31.612 C 338.917,14.182 324.736,0 307.305,0 H 55.769 C 38.338,0 24.157,14.182 24.157,31.612 V 430.49 c 0,0.089 0.01,0.176 0.013,0.265 0.072,10.154 4.06,19.766 11.316,27.162 7.588,7.734 18.123,12.171 28.902,12.171 h 23.97 c 4.142,0 7.5,-3.357 7.5,-7.5 0,-4.143 -3.358,-7.5 -7.5,-7.5 h -23.97 c -6.777,0 -13.409,-2.798 -18.194,-7.676 -4.659,-4.748 -7.156,-10.93 -7.032,-17.404 0.254,-13.297 11.287,-24.114 24.593,-24.114 H 275.31 c 4.143,0 7.5,-3.357 7.5,-7.5 0,-4.143 -3.358,-7.5 -7.501,-7.5 z"
           id="path57" />
        <path
           inkscape:connector-curvature="0"
           d="M 184.445,424.25 H 171.983 118.358 105.14 c -4.142,0 -7.5,3.357 -7.5,7.5 0,4.143 3.358,7.5 7.5,7.5 h 5.718 v 64.639 c 0,2.598 1.344,5.011 3.554,6.378 2.209,1.365 4.968,1.492 7.293,0.334 l 23.465,-11.702 23.465,11.702 c 1.057,0.526 2.203,0.788 3.347,0.788 1.373,0 2.742,-0.377 3.947,-1.122 2.209,-1.367 3.554,-3.78 3.554,-6.378 V 439.25 h 4.962 c 4.142,0 7.5,-3.357 7.5,-7.5 0,-4.143 -3.358,-7.5 -7.5,-7.5 z m -19.963,67.518 -15.965,-7.962 c -1.054,-0.525 -2.201,-0.788 -3.347,-0.788 -1.146,0 -2.293,0.263 -3.347,0.788 l -15.965,7.962 V 439.25 h 38.625 v 52.518 z"
           id="path59" />
        <path
           inkscape:connector-curvature="0"
           d="m 84.151,328.062 h 105.803 c 4.142,0 7.5,-3.357 7.5,-7.5 0,-4.143 -3.358,-7.5 -7.5,-7.5 H 84.151 c -8.739,0 -15.849,7.11 -15.849,15.85 v 28.184 c 0,8.739 7.11,15.849 15.849,15.849 h 156.29 c 4.142,0 7.5,-3.357 7.5,-7.5 0,-4.143 -3.358,-7.5 -7.5,-7.5 H 84.151 c -0.468,0 -0.849,-0.381 -0.849,-0.849 v -28.184 c 0,-0.47 0.381,-0.85 0.849,-0.85 z"
           id="path61" />
        <path
           inkscape:connector-curvature="0"
           d="m 219,80.285 c 0,-4.143 -3.358,-7.5 -7.5,-7.5 H 83.3 c -8.27,0 -14.998,6.729 -14.998,14.998 v 105.063 c 0,8.27 6.728,14.998 14.998,14.998 h 70.203 c 4.142,0 7.5,-3.357 7.5,-7.5 0,-4.143 -3.358,-7.5 -7.5,-7.5 L 83.302,192.846 83.3,87.785 h 128.2 c 4.142,0 7.5,-3.357 7.5,-7.5 z"
           id="path63" />
        <path
           inkscape:connector-curvature="0"
           d="m 487.232,212.143 c 0,-85.916 -69.898,-155.814 -155.814,-155.814 -85.917,0 -155.814,69.898 -155.814,155.814 0,74.38 52.391,136.743 122.206,152.153 v 23.737 c 0,4.143 3.357,7.5 7.5,7.5 4.143,0 7.5,-3.357 7.5,-7.5 v -21.191 c 6.104,0.73 12.312,1.115 18.608,1.115 6.296,0 12.505,-0.386 18.608,-1.115 v 65.787 h -37.217 v -12.635 c 0,-4.143 -3.357,-7.5 -7.5,-7.5 -4.143,0 -7.5,3.357 -7.5,7.5 v 46.007 c 0,14.275 11.613,25.889 25.888,25.889 h 15.44 c 14.275,0 25.889,-11.613 25.889,-25.889 V 364.296 C 434.84,348.886 487.232,286.522 487.232,212.143 Z M 339.137,476.89 h -15.44 c -6.004,0 -10.888,-4.885 -10.888,-10.889 v -18.372 h 37.217 v 18.372 c 0,6.004 -4.885,10.889 -10.889,10.889 z m -7.72,-123.933 c -77.646,0 -140.814,-63.169 -140.814,-140.814 0,-77.645 63.169,-140.815 140.814,-140.815 77.645,0 140.814,63.169 140.814,140.814 0,77.645 -63.168,140.815 -140.814,140.815 z"
           id="path65" />
        <path
           inkscape:connector-curvature="0"
           d="m 331.417,90.037 c -67.329,0 -122.105,54.776 -122.105,122.105 0,25.969 8.052,50.771 23.287,71.726 2.436,3.35 7.127,4.092 10.477,1.656 3.351,-2.436 4.092,-7.126 1.656,-10.477 -13.358,-18.374 -20.419,-40.127 -20.419,-62.905 0,-59.059 48.047,-107.105 107.105,-107.105 59.058,0 107.105,48.047 107.105,107.105 0,59.058 -48.047,107.105 -107.105,107.105 -24.116,0 -46.889,-7.827 -65.854,-22.636 -3.266,-2.549 -7.979,-1.97 -10.528,1.296 -2.549,3.265 -1.969,7.978 1.295,10.526 21.628,16.888 47.593,25.813 75.086,25.813 67.329,0 122.105,-54.776 122.105,-122.105 0,-67.329 -54.775,-122.104 -122.105,-122.104 z"
           id="path67" />
        <path
           inkscape:connector-curvature="0"
           d="m 106.521,125.505 h 6.823 c 4.142,0 7.5,-3.357 7.5,-7.5 0,-4.143 -3.358,-7.5 -7.5,-7.5 h -6.823 c -4.142,0 -7.5,3.357 -7.5,7.5 0,4.143 3.358,7.5 7.5,7.5 z"
           id="path69" />
        <path
           inkscape:connector-curvature="0"
           d="m 180.137,118.005 c 0,-4.143 -3.358,-7.5 -7.5,-7.5 h -27.293 c -4.142,0 -7.5,3.357 -7.5,7.5 0,4.143 3.358,7.5 7.5,7.5 h 27.293 c 4.142,0 7.5,-3.358 7.5,-7.5 z"
           id="path71" />
        <path
           inkscape:connector-curvature="0"
           d="m 106.521,164.563 h 47.763 c 4.142,0 7.5,-3.357 7.5,-7.5 0,-4.143 -3.358,-7.5 -7.5,-7.5 h -47.763 c -4.142,0 -7.5,3.357 -7.5,7.5 0,4.143 3.358,7.5 7.5,7.5 z"
           id="path73" />
        <path
           inkscape:connector-curvature="0"
           d="m 352.984,226.473 c 4.137,0.326 7.738,-2.766 8.061,-6.895 l 0.744,-9.549 c 0.345,-4.417 -1.184,-8.815 -4.191,-12.067 -3.009,-3.252 -7.274,-5.117 -11.705,-5.117 h -31.505 c -4.431,0 -8.696,1.865 -11.705,5.117 -3.008,3.252 -4.536,7.65 -4.191,12.067 l 5.318,68.232 c 0.645,8.244 7.628,14.703 15.897,14.703 h 20.867 c 8.272,0 15.254,-6.46 15.896,-14.705 l 2.084,-26.719 c 0.322,-4.129 -2.765,-7.738 -6.895,-8.061 -4.141,-0.327 -7.738,2.765 -8.061,6.895 l -2.084,26.721 c -0.038,0.487 -0.451,0.869 -0.94,0.869 h -20.867 c -0.49,0 -0.904,-0.384 -0.942,-0.871 l -5.318,-68.23 c -0.021,-0.273 0.062,-0.515 0.248,-0.716 0.186,-0.201 0.419,-0.303 0.693,-0.303 h 31.505 c 0.274,0 0.508,0.102 0.693,0.303 0.187,0.201 0.27,0.442 0.248,0.716 l -0.744,9.549 c -0.322,4.13 2.765,7.738 6.894,8.061 z"
           id="path75" />
        <path
           inkscape:connector-curvature="0"
           d="m 345.158,128.913 h -32.149 c -8.381,0 -15.199,6.818 -15.199,15.199 v 18.033 c 0,8.381 6.818,15.199 15.199,15.199 h 32.149 c 8.381,0 15.199,-6.818 15.199,-15.199 v -18.033 c 0,-8.381 -6.818,-15.199 -15.199,-15.199 z m 0.199,33.233 c 0,0.109 -0.09,0.199 -0.199,0.199 h -32.149 c -0.109,0 -0.199,-0.09 -0.199,-0.199 v -18.033 c 0,-0.109 0.09,-0.199 0.199,-0.199 h 32.149 c 0.109,0 0.199,0.09 0.199,0.199 z"
           id="path77" />
      </g>
    </g>
  </g>
</svg>
