<?xml version="1.0" encoding="UTF-8"?>
<svg id="lean" width="512" height="512" enable-background="new 0 0 256 256" version="1.1" viewBox="0 0 256 256" xmlns="http://www.w3.org/2000/svg" xmlns:cc="http://creativecommons.org/ns#" xmlns:dc="http://purl.org/dc/elements/1.1/" xmlns:rdf="http://www.w3.org/1999/02/22-rdf-syntax-ns#">
 <metadata>
  <rdf:RDF>
   <cc:Work rdf:about="">
    <dc:format>image/svg+xml</dc:format>
    <dc:type rdf:resource="http://purl.org/dc/dcmitype/StillImage"/>
    <dc:title/>
   </cc:Work>
  </rdf:RDF>
 </metadata>
 <g transform="matrix(.98516 0 0 .98516 .44942 3.7791)">
  <rect x="3.0938" y="-.28608" width="252.76" height="252.76" ry="38.886" fill="#fff" fill-rule="evenodd" stroke="#3a312a" stroke-width="6.0848"/>
  <g id="Icons" transform="matrix(5.4423 0 0 5.4423 -1.1434 -4.5229)">
   <path d="m33.157 27.147s0.59901-2.5946 0.48167-3.6644c0 0 1.046 0.70739 2.9385 0 1.8924-0.70739 2.1436-0.73595 2.9409-1.4369s3.8543-1.3614 3.8543-1.3614-2.1012 1.8901-3.0956 2.9069-1.8221 1.5757-2.8986 2.224-3.7251 1.5863-4.2212 1.3319z" fill="#889b4c"/>
   <path d="m14.843 27.202s-0.59901-2.5946-0.48167-3.6644c0 0-1.046 0.70739-2.9385 0s-2.1436-0.73595-2.9409-1.4369c-0.79731-0.70097-3.8543-1.3614-3.8543-1.3614s2.1012 1.8901 3.0956 2.9069 1.8221 1.5757 2.8986 2.224c1.0765 0.64826 3.7251 1.5863 4.2212 1.3319z" fill="#889b4c"/>
   <path d="m14.871 19.509-0.07336 0.43115c-0.479-0.04999-1.0234-0.06909-1.6217-0.0072-1.9299 0.19971-2.1296 0.55072-4.5254-0.04065-2.3958-0.59155-4.3923 0.44-4.3923 0.44s3.7504 1.2898 4.6263 2.1109c0.87598 0.82117 3.8868 1.5328 5.3102 1.0401 0 0 0.21899 3.9964 1.3139 5.0913l3.8415 4.5438s1.6329 1.4233 4.0964 1.2591h0.94031c2.4635 0.16425 4.0964-1.2591 4.0964-1.2591l3.8415-4.5438c1.0949-1.0949 1.3138-5.0913 1.3138-5.0913 1.4233 0.49274 4.4343-0.21893 5.3102-1.0401 0.87592-0.82111 4.6263-2.1109 4.6263-2.1109s-1.9966-1.0316-4.3923-0.44c-2.3958 0.59137-2.5955 0.24036-4.5254 0.04065-0.59576-0.06165-1.138-0.04291-1.6156 0.0065l-0.07953-0.43045c-0.79987-2.8261-4.319-4.6923-4.319-4.6923-0.63629-0.98621-2.1615-1.2874-3.291-1.3713l-2e-3 -0.0015-0.02069-1.8e-4c-0.75244-0.05426-1.3254-0.01343-1.3254-0.01343l0.0023 0.0016-0.17743-0.0016s-3.5726-0.26654-4.639 1.3864c0 0-0.63336 0.33789-1.4222 0.93872l-1.8e-4 -1.8e-4 1.2e-4 2.4e-4c-1.0733 0.81757-2.4359 2.1246-2.8969 3.7536" fill="#b9d67c"/>
   <path d="m17.888 23.992s-0.41223 1.574 1.5178 1.5365c0 0 1.2929 0.22487 1.2179-1.5365" fill="#fff"/>
   <path d="m16.314 23.992s0.72981-2.6232 3.1194-2.4359c0 0 2.5019 0.18735 3.064 2.4359" fill="#889b4c"/>
   <path d="m31.686 23.992s-0.72989-2.6232-3.1194-2.4359c0 0-2.502 0.18735-3.0641 2.4359" fill="#889b4c"/>
   <path d="m30.112 23.992s0.41222 1.574-1.5178 1.5365c0 0-1.2928 0.22487-1.2179-1.5365" fill="#fff"/>
   <g fill="none" stroke="#303030" stroke-linecap="round" stroke-linejoin="round" stroke-miterlimit="10" stroke-width=".75">
    <path d="m23.912 13.528s-3.5726-0.26657-4.639 1.3864c0 0-3.5193 1.8662-4.319 4.6923"/>
    <path d="m4.3416 20.43s3.3124 2.932 3.6956 3.5342c0.38321 0.6022 4.4694 3.6296 6.8059 3.1835"/>
    <path d="m16.314 23.992s0.72981-2.6232 3.1194-2.4359c0 0 2.5019 0.18735 3.064 2.4359"/>
    <line x1="16.314" x2="22.497" y1="23.992" y2="23.992"/>
    <path d="m17.888 23.992s-0.41223 1.574 1.5178 1.5365c0 0 1.2929 0.22487 1.2179-1.5365"/>
    <path d="m17.064 25.266s1.9487 1.2367 4.4595 0"/>
    <path d="m24.088 13.528s3.5726-0.26657 4.639 1.3864c0 0 3.5192 1.8662 4.319 4.6923"/>
    <path d="m31.347 20.43s1.4641-0.59902 3.394-0.39935 2.1296 0.55071 4.5254-0.0407c2.3957-0.5915 4.3923 0.44005 4.3923 0.44005s-3.7504 1.2898-4.6263 2.1108c-0.87592 0.82118-3.8869 1.5329-5.3102 1.0402 0 0-0.21897 3.9964-1.3139 5.0913l-3.8415 4.5437s-1.6329 1.4234-4.0964 1.2591h-0.94027c-2.4635 0.16423-4.0964-1.2591-4.0964-1.2591l-3.8415-4.5437c-1.0949-1.0949-1.3139-5.0913-1.3139-5.0913-1.4234 0.49271-4.4342-0.21898-5.3102-1.0402-0.87592-0.82108-4.6263-2.1108-4.6263-2.1108s1.9965-1.0316 4.3923-0.44005c2.3958 0.59141 2.5955 0.24037 4.5254 0.0407s3.394 0.39935 3.394 0.39935"/>
    <path d="m24.088 13.528s3.5726-0.26657 4.639 1.3864c0 0 3.5192 1.8662 4.319 4.6923"/>
    <path d="m31.347 20.43s1.4641-0.59902 3.394-0.39935 2.1296 0.55071 4.5254-0.0407c2.3957-0.5915 4.3923 0.44005 4.3923 0.44005s-3.7504 1.2898-4.6263 2.1108c-0.87592 0.82118-3.8869 1.5329-5.3102 1.0402 0 0-0.21897 3.9964-1.3139 5.0913l-3.8415 4.5437s-1.6329 1.4234-4.0964 1.2591h-0.94027c-2.4635 0.16423-4.0964-1.2591-4.0964-1.2591l-3.8415-4.5437c-1.0949-1.0949-1.3139-5.0913-1.3139-5.0913-1.4234 0.49271-4.4342-0.21898-5.3102-1.0402-0.87592-0.82108-4.6263-2.1108-4.6263-2.1108s1.9965-1.0316 4.3923-0.44005c2.3958 0.59141 2.5955 0.24037 4.5254 0.0407s3.394 0.39935 3.394 0.39935"/>
    <path d="m43.658 20.43s-3.3124 2.932-3.6956 3.5342c-0.38321 0.6022-4.4694 3.6296-6.8059 3.1835"/>
    <path d="m31.686 23.992s-0.72989-2.6232-3.1194-2.4359c0 0-2.502 0.18735-3.0641 2.4359"/>
    <line x1="31.686" x2="25.503" y1="23.992" y2="23.992"/>
    <path d="m30.112 23.992s0.41222 1.574-1.5178 1.5365c0 0-1.2928 0.22487-1.2179-1.5365"/>
    <path d="m30.936 25.266s-1.9487 1.2367-4.4596 0"/>
    <path d="m19.835 31.341c0.04107-3.9826 2.6628-4.8038 2.6628-4.8038l1.415 0.61044 1.5061-0.61044s2.6687 1.0675 2.5866 4.8038"/>
    <line x1="19.96" x2="27.873" y1="29.994" y2="29.994"/>
    <line x1="22.497" x2="23.53" y1="26.537" y2="22.769"/>
    <line x1="25.491" x2="24.459" y1="26.537" y2="22.769"/>
    <path d="m19.96 19.807s-0.97245-2.8958-2.1093-3.9541"/>
    <path d="m22.497 19.606s-0.60473-3.4572-2.537-5.1405"/>
    <path d="m28.028 19.807s0.97245-2.8958 2.1093-3.9541"/>
    <path d="m25.491 19.506s0.60473-3.4572 2.537-5.1405"/>
    <path d="m16.755 27.37s0.61153 1.0286 0.91734 1.2787"/>
    <line x1="14.495" x2="12.568" y1="25.538" y2="25.189"/>
    <line x1="33.504" x2="35.057" y1="25.538" y2="25.266"/>
   </g>
  </g>
 </g>
</svg>
