<?xml version="1.0" encoding="UTF-8"?>
<svg id="lean" width="512" height="512" enable-background="new 0 0 256 256" version="1.1" viewBox="0 0 256 256" xmlns="http://www.w3.org/2000/svg" xmlns:cc="http://creativecommons.org/ns#" xmlns:dc="http://purl.org/dc/elements/1.1/" xmlns:rdf="http://www.w3.org/1999/02/22-rdf-syntax-ns#">
 <metadata>
  <rdf:RDF>
   <cc:Work rdf:about="">
    <dc:format>image/svg+xml</dc:format>
    <dc:type rdf:resource="http://purl.org/dc/dcmitype/StillImage"/>
    <dc:title/>
   </cc:Work>
  </rdf:RDF>
 </metadata>
 <g transform="matrix(.98516 0 0 .98516 .44942 3.7791)">
  <rect x="3.0938" y="-.28608" width="252.76" height="252.76" ry="38.886" fill="#fff" fill-rule="evenodd" stroke="#3a312a" stroke-width="6.0848"/>
  <g transform="matrix(.81372 0 0 .81372 5.6665 40.672)" stroke-width="4.0602">
   <path d="m225.23 182.59h-23.111c16.842-18.125 27.171-42.385 27.171-69.024 0-22.088-7.1785-43.396-20.326-60.904h32.506c20.147 0 36.542-16.395 36.542-36.542 0-20.147-16.395-36.542-36.542-36.542h-24.361c-20.147 0-36.542 16.395-36.542 36.542v10.731c-15.872-9.6959-33.964-14.791-52.783-14.791-55.971 0-101.51 45.536-101.51 101.51 0 25.701 9.7811 50.339 27.106 69.024h-2.7447v8.1205h77.145v-8.1205h-62.861c-19.404-17.686-30.525-42.746-30.525-69.024 0-51.492 41.894-93.386 93.386-93.386 19.018 0 37.204 5.7006 52.783 16.407v16.075h17.93c14.601 16.939 22.672 38.475 22.672 60.904 0 51.492-41.894 93.386-93.386 93.386h-69.024v8.1205h166.47v15.291l52.556-31.532-52.556-31.532zm-36.542-138.05v-28.422c0-15.673 12.749-28.422 28.422-28.422h24.361c15.673 0 28.422 12.749 28.422 28.422 0 15.673-12.749 28.422-28.422 28.422zm44.663 137.1 28.649 17.191-28.649 17.191v-9.0706h-65.804c9.5416-4.0765 18.32-9.5903 26.099-16.241h39.705z"/>
   <path d="m34.399 182.59h8.1205v8.1205h-8.1205z"/>
   <path d="m26.279 206.96h8.1205v8.1205h-8.1205z"/>
   <path d="m42.52 206.96h8.1205v8.1205h-8.1205z"/>
   <path d="m127.78 36.425c-42.539 0-77.145 34.605-77.145 77.145 0 42.539 34.605 77.145 77.145 77.145s77.145-34.605 77.145-77.145c0-42.539-34.605-77.145-77.145-77.145zm0 133.99c-31.394 0-56.843-25.45-56.843-56.843 0-31.394 25.45-56.843 56.843-56.843s56.843 25.45 56.843 56.843c0 31.394-25.45 56.843-56.843 56.843z" fill="#f0bc5e"/>
   <path d="m127.78 52.666c-33.582 0-60.904 27.321-60.904 60.904s27.321 60.904 60.904 60.904c33.582 0 60.904-27.321 60.904-60.904s-27.321-60.904-60.904-60.904zm52.576 64.964c-0.88108 11.503-5.4448 21.97-12.538 30.237l-11.332-11.332-5.7412 5.7412 11.332 11.332c-8.2667 7.0932-18.738 11.657-30.237 12.538v-16.034h-8.1205v16.034c-11.503-0.88107-21.97-5.4448-30.237-12.538l11.332-11.332-5.7412-5.7412-11.332 11.332c-7.0933-8.2667-11.657-18.738-12.538-30.237h16.034v-8.1205h-16.034c0.88107-11.503 5.4448-21.97 12.538-30.237l11.332 11.332 5.7412-5.7412-11.332-11.332c8.2667-7.0933 18.738-11.657 30.237-12.538v16.034h8.1205v-16.034c11.503 0.88107 21.97 5.4448 30.237 12.538l-11.332 11.332 5.7412 5.7412 11.332-11.332c7.0932 8.2667 11.657 18.738 12.538 30.237h-16.034v8.1205z"/>
   <path d="m139.97 113.57c0-5.2864-3.4065-9.7527-8.1205-11.434v-16.988h-8.1205v16.988c-4.714 1.681-8.1205 6.1472-8.1205 11.434 0 6.7156 5.4651 12.181 12.181 12.181 1.8758 0 3.6299-0.45881 5.2174-1.2221l8.153 8.153 5.7412-5.7412-8.153-8.153c0.76333-1.5876 1.2221-3.3416 1.2221-5.2174zm-12.181 4.0602c-2.2372 0-4.0602-1.823-4.0602-4.0602s1.823-4.0602 4.0602-4.0602c2.2372 0 4.0602 1.823 4.0602 4.0602s-1.823 4.0602-4.0602 4.0602z"/>
   <path d="m208.99-0.11686h40.602v36.542h-40.602z" fill="#f0bc5e"/>
   <path d="m208.99-4.1771h40.602v8.1205h-40.602z"/>
   <path d="m208.99 12.064h40.602v8.1205h-40.602z"/>
   <path d="m241.47 28.305h8.1205v8.1205h-8.1205z"/>
   <path d="m225.23 28.305h8.1205v8.1205h-8.1205z"/>
   <path d="m208.99 28.305h8.1205v8.1205h-8.1205z"/>
  </g>
 </g>
</svg>
