<?xml version="1.0" encoding="UTF-8"?>
<svg id="lean" width="512" height="512" enable-background="new 0 0 256 256" version="1.1" viewBox="0 0 256 256" xmlns="http://www.w3.org/2000/svg" xmlns:cc="http://creativecommons.org/ns#" xmlns:dc="http://purl.org/dc/elements/1.1/" xmlns:rdf="http://www.w3.org/1999/02/22-rdf-syntax-ns#">
 <metadata>
  <rdf:RDF>
   <cc:Work rdf:about="">
    <dc:format>image/svg+xml</dc:format>
    <dc:type rdf:resource="http://purl.org/dc/dcmitype/StillImage"/>
    <dc:title/>
   </cc:Work>
  </rdf:RDF>
 </metadata>
 <g transform="matrix(.98516 0 0 .98516 .44942 3.7791)">
  <rect x="3.0938" y="-.28608" width="252.76" height="252.76" ry="38.886" fill="#fff" fill-rule="evenodd" stroke="#3a312a" stroke-width="6.0848"/>
 </g>
 <g transform="matrix(.7988 0 0 .7988 25.754 34.419)">
  <path d="m56 13.153h184v160h-184z" fill="#ffeaa7" stroke-width="4"/>
  <path d="m248 1.1525v8c0 2.2-1.8 4-4 4h-192c-2.2 0-4-1.8-4-4v-8c0-2.2 1.8-4 4-4h192c2.2 0 4 1.8 4 4z" fill="#969faa" stroke-width="4"/>
  <g fill="#cf9e76" stroke-width="4">
   <path d="m160 101.15h56v48h-56z"/>
   <path d="m160 37.153h56v48h-56z"/>
   <path d="m80 37.153h56v48h-56z"/>
  </g>
  <g transform="matrix(4 0 0 4 0 -10.847)" fill="#ecc19c">
   <path d="m24 12h6v4h-6z"/>
   <path d="m44 12h6v4h-6z"/>
   <path d="m44 20h6v4h-6z"/>
   <path d="m44 28h6v4h-6z"/>
   <path d="m44 36h6v4h-6z"/>
  </g>
  <g stroke-width="4">
   <path d="m60 157.15h36c6.64 0 12-5.36 12-12v-34c0-2.76 1.12-5.28 2.92-7.08s4.32-2.92 7.08-2.92c5.52 0 10 4.48 10 10v42.64c0 7.44-2.92 14.28-7.8 19.36-3.96 4.16-9.2 7.08-15.2 8.2l-12.8 2.32c-4.76 0.84-8.2 5-8.2 9.84v43.64h-76v-40c0-22.08 17.92-40 40-40h8z" fill="#48cfad"/>
   <circle cx="56" cy="133.15" r="24" fill="#f0d0b4"/>
   <path d="m140 33.153h-64v56h64zm-40 8h16v8h-16zm32 40h-48v-40h8v16h32v-16h8z"/>
   <path d="m220 33.153h-64v56h64zm-40 8h16v8h-16zm16 40h-16v-8h16zm16 0h-8v-16h-32v16h-8v-40h8v16h32v-16h8z"/>
   <path d="m220 97.153h-64v56h64zm-40 8h16v8h-16zm16 40h-16v-8h16zm16 0h-8v-16h-32v16h-8v-40h8v16h32v-16h8z"/>
   <path d="m244-6.8475h-192c-4.412 0-8 3.588-8 8v8c0 4.412 3.588 8 8 8v88.32c-13.544 1.952-24 13.604-24 27.68 0 8.492 3.816 16.1 9.808 21.24-19.356 4.616-33.808 22.012-33.808 42.76v44h84v-47.652c0-2.904 2.072-5.388 4.924-5.908l12.796-2.328c6.232-1.132 11.74-4.04 16.104-8.112h122.18v-160c4.412 0 8-3.588 8-8v-8c0-4.412-3.588-8-8-8zm-208 140c0-11.028 8.972-20 20-20s20 8.972 20 20-8.972 20-20 20-20-8.972-20-20zm68.292 44.248-12.796 2.324c-6.66 1.208-11.496 7.004-11.496 13.776v39.652h-48v-52h-8v52h-12v-36c0-19.852 16.148-36 36-36h48c8.824 0 16-7.176 16-16v-34c0-3.308 2.692-6 6-6s6 2.692 6 6v42.632c0 11.608-8.288 21.536-19.708 23.616zm131.71-8.248h-107.95c2.516-4.588 3.952-9.828 3.952-15.368v-42.632c0-7.72-6.28-14-14-14s-14 6.28-14 14v34c0 4.412-3.588 8-8 8h-20.444c5.204-5.088 8.444-12.168 8.444-20 0-14.076-10.456-25.728-24-27.68v-88.32h176zm8-160h-192l-8e-3 -8h192.01z"/>
  </g>
 </g>
</svg>
