<?xml version="1.0" encoding="UTF-8"?>
<svg id="lean" width="512" height="512" enable-background="new 0 0 256 256" version="1.1" viewBox="0 0 256 256" xmlns="http://www.w3.org/2000/svg" xmlns:cc="http://creativecommons.org/ns#" xmlns:dc="http://purl.org/dc/elements/1.1/" xmlns:rdf="http://www.w3.org/1999/02/22-rdf-syntax-ns#">
 <metadata>
  <rdf:RDF>
   <cc:Work rdf:about="">
    <dc:format>image/svg+xml</dc:format>
    <dc:type rdf:resource="http://purl.org/dc/dcmitype/StillImage"/>
    <dc:title/>
   </cc:Work>
  </rdf:RDF>
 </metadata>
 <g transform="matrix(.98516 0 0 .98516 .44942 3.7791)">
  <rect x="3.0938" y="-.28608" width="252.76" height="252.76" ry="38.886" fill="#fff" fill-rule="evenodd" stroke="#3a312a" stroke-width="6.0848"/>
 </g>
 <g transform="matrix(.56097 0 0 .56097 211.37 183.98)" stroke-width=".66667">
  <path d="m-11.277 20.203h-274.67c-14.727 0-26.667-11.94-26.667-26.667v-186.67c0-14.727 11.94-26.667 26.667-26.667h274.67c14.727 0 26.667 11.94 26.667 26.667v186.67c0 14.727-11.94 26.667-26.667 26.667z" fill="#91def5"/>
  <path d="m-161.94-127.8c0 31.664-25.669 57.333-57.333 57.333s-57.333-25.669-57.333-57.333 25.669-57.333 57.333-57.333 57.333 25.669 57.333 57.333z" fill="#ffcb7c"/>
  <path d="m-219.28-112.21c-17.669 0-32.521 12.052-36.789 28.383 9.9557 8.3386 22.784 13.362 36.789 13.362 14.005 0 26.833-5.0234 36.789-13.362-4.2682-16.331-19.12-28.383-36.789-28.383z" fill="#ff6977"/>
  <path d="m-219.28-152.31c-10.38 0-18.797 8.4141-18.797 18.794v2.5078c0 10.38 8.4167 18.794 18.797 18.794 10.38 0 18.797-8.4141 18.797-18.794v-2.5078c0-10.38-8.4167-18.794-18.797-18.794z" fill="#ffddcf"/>
  <path d="m-116.61-153.13h96v53.333h-96z" fill="#fff"/>
  <path d="m-11.277-226.46h-181.33c-3.6823 0-6.6667 2.9844-6.6667 6.6667 0 3.6823 2.9844 6.6667 6.6667 6.6667h181.33c11.029 0 20 8.9714 20 20v186.67c0 11.029-8.9713 20-20 20h-274.67c-11.029 0-20-8.9714-20-20v-186.67c0-11.029 8.9714-20 20-20h40c3.6823 0 6.6667-2.9844 6.6667-6.6667 0-3.6823-2.9844-6.6667-6.6667-6.6667h-40c-18.38 0-33.333 14.953-33.333 33.333v186.67c0 18.38 14.953 33.333 33.333 33.333h274.67c18.38 0 33.333-14.953 33.333-33.333v-186.67c0-18.38-14.953-33.333-33.333-33.333z"/>
  <path d="m-219.28-191.8c-35.289 0-64 28.711-64 64 0 35.289 28.711 64 64 64 35.289 0 64-28.711 64-64 0-35.289-28.711-64-64-64zm-28.948 105.55c4.8021-11.544 16.154-19.292 28.948-19.292 12.794 0 24.148 7.7474 28.951 19.292-8.2135 5.7396-18.193 9.1198-28.951 9.1198-10.758 0-20.737-3.3802-28.948-9.1198zm16.818-44.755v-2.5052c0-6.6901 5.4427-12.13 12.13-12.13 6.6875 0 12.13 5.4401 12.13 12.13v2.5052c0 6.6875-5.4427 12.13-12.13 12.13-6.6875 0-12.13-5.4427-12.13-12.13zm51.307 35.297c-4.5156-8.2188-11.495-14.755-19.836-18.763 3.8125-4.4531 6.1224-10.227 6.1224-16.534v-2.5052c0-14.042-11.424-25.464-25.464-25.464-14.039 0-25.464 11.422-25.464 25.464v2.5052c0 6.3073 2.3099 12.081 6.1224 16.534-8.3411 4.0052-15.32 10.544-19.836 18.763-7.1745-8.7448-11.49-19.922-11.49-32.089 0-27.938 22.729-50.667 50.667-50.667 27.938 0 50.667 22.729 50.667 50.667 0 12.167-4.3151 23.344-11.49 32.089z"/>
  <path d="m-116.61-93.13h96c3.6823 0 6.6667-2.9844 6.6667-6.6667v-53.333c0-3.6823-2.9844-6.6667-6.6667-6.6667h-96c-3.6823 0-6.6667 2.9844-6.6667 6.6667v53.333c0 3.6823 2.9844 6.6667 6.6667 6.6667zm6.6667-53.333h82.667v40h-82.667z"/>
  <path d="m-116.61-66.463h96c3.6823 0 6.6667-2.9844 6.6667-6.6667 0-3.6823-2.9844-6.6667-6.6667-6.6667h-96c-3.6823 0-6.6667 2.9844-6.6667 6.6667 0 3.6823 2.9844 6.6667 6.6667 6.6667z"/>
  <path d="m-121.32-41.75c1.2396 1.2396 2.9609 1.9531 4.7135 1.9531 1.7526 0 3.474-0.71354 4.7135-1.9531 1.2396-1.2396 1.9531-2.9609 1.9531-4.7135 0-1.7526-0.71354-3.474-1.9531-4.7135-1.2396-1.2396-2.9609-1.9531-4.7135-1.9531-1.7526 0-3.474 0.71354-4.7135 1.9531-1.2396 1.2396-1.9531 2.9609-1.9531 4.7135 0 1.7526 0.71354 3.474 1.9531 4.7135z"/>
  <path d="m-94.657-51.177c-1.2396 1.2396-1.9531 2.9609-1.9531 4.7135 0 1.7526 0.71354 3.474 1.9531 4.7135 1.2396 1.2396 2.9609 1.9531 4.7135 1.9531 1.7526 0 3.474-0.71354 4.7135-1.9531 1.2396-1.2396 1.9531-2.9609 1.9531-4.7135 0-1.7526-0.71354-3.474-1.9531-4.7135-1.2396-1.2396-2.9609-1.9531-4.7135-1.9531-1.7526 0-3.474 0.71354-4.7135 1.9531z"/>
  <path d="m-20.61-53.13h-42.667c-3.6823 0-6.6667 2.9844-6.6667 6.6667s2.9844 6.6667 6.6667 6.6667h42.667c3.6823 0 6.6667-2.9844 6.6667-6.6667 0-3.6823-2.9844-6.6667-6.6667-6.6667z"/>
  <path d="m-171.5-43.742c0-3.6797-2.987-6.6667-6.6667-6.6667h-82.224c-3.6797 0-6.6667 2.987-6.6667 6.6667 0 3.6823 2.987 6.6667 6.6667 6.6667h82.224c3.6797 0 6.6667-2.9844 6.6667-6.6667z"/>
  <path d="m-249.72-23.742c-3.6797 0-6.6667 2.987-6.6667 6.6667 0 3.6823 2.987 6.6667 6.6667 6.6667h60.891c3.6797 0 6.6667-2.9844 6.6667-6.6667 0-3.6797-2.987-6.6667-6.6667-6.6667z"/>
  <path d="m-219.28-213.13c1.7526 0 3.474-0.71354 4.7135-1.9531 1.2396-1.2396 1.9531-2.9609 1.9531-4.7135 0-1.7526-0.71354-3.474-1.9531-4.7135-1.2396-1.2396-2.9609-1.9531-4.7135-1.9531-1.7526 0-3.474 0.71354-4.7136 1.9531-1.2396 1.2396-1.9531 2.9609-1.9531 4.7135 0 1.7526 0.71354 3.474 1.9531 4.7135s2.9609 1.9531 4.7136 1.9531z"/>
 </g>
</svg>
