<?xml version="1.0" encoding="UTF-8"?>
<svg id="lean" width="512" height="512" enable-background="new 0 0 256 256" version="1.1" viewBox="0 0 256 256" xmlns="http://www.w3.org/2000/svg" xmlns:cc="http://creativecommons.org/ns#" xmlns:dc="http://purl.org/dc/elements/1.1/" xmlns:rdf="http://www.w3.org/1999/02/22-rdf-syntax-ns#">
 <metadata>
  <rdf:RDF>
   <cc:Work rdf:about="">
    <dc:format>image/svg+xml</dc:format>
    <dc:type rdf:resource="http://purl.org/dc/dcmitype/StillImage"/>
    <dc:title/>
   </cc:Work>
  </rdf:RDF>
 </metadata>
 <g transform="matrix(.98516 0 0 .98516 .44942 3.7791)">
  <rect x="3.0938" y="-.28608" width="252.76" height="252.76" ry="38.886" fill="#fff" fill-rule="evenodd" stroke="#3a312a" stroke-width="6.0848"/>
 </g>
 <g transform="matrix(.80675 0 0 .80675 -18.144 45.739)">
  <path d="m181.15 18.966c-68.625 0-124.25 37.16-124.25 83 0 45.84 55.625 83 124.25 83 68.62 0 124.25-37.16 124.25-83 0-45.84-55.63-83-124.25-83zm62.365 32.5c3.66 2.705 3.65 8.1-0.02 10.8-5.005 3.675-13.825 8.04-26.025 11.22-0.235-0.85-0.48-1.695-0.74-2.525-5.495-17.845-15.675-31.01-27.83-34.99 27.415 1.305 46.305 9.345 54.615 15.495zm-83.725 43.345c6.86 0.78 14.025 1.195 21.36 1.195s14.495-0.415 21.355-1.195c0.15 2.145 0.23 4.355 0.23 6.62 0 29.105-12.995 48.415-21.585 48.415-8.595 0-21.59-19.31-21.59-48.415 0-2.265 0.08-4.475 0.23-6.62zm39.53-17.965c-5.625 0.66-11.69 1.035-18.17 1.035-2.13 0-4.215-0.04-6.25-0.12-0.02 0-0.035 0-0.05-5e-3 -4.155-0.155-8.11-0.47-11.875-0.91 4.44-14.89 12.325-23.835 18.175-23.835 5.845 0 13.73 8.945 18.17 23.835zm-80.52-25.44c6.415-4.71 19.105-10.56 37.135-13.585 0.305-0.05 0.62-0.105 0.935-0.155 5.1-0.82 10.615-1.415 16.53-1.695-12.725 4.165-23.28 18.39-28.57 37.51-12.22-3.19-21.05-7.575-26.05-11.275-3.66-2.71-3.65-8.105 0.02-10.8zm69.875 117.63c-0.42 0.025-0.84 0.04-1.26 0.055h-0.015c-2.07 0.085-4.155 0.125-6.25 0.125-57.375 0-105.84-30.795-105.84-67.25 0-14.075 7.22-27.3 19.39-38.235 4.325 12.08 22.42 22.49 46.88 28.025-0.28 3.16-0.42 6.39-0.42 9.675 0 36.845 17.905 66.715 39.995 66.715 22.085 0 39.99-29.87 39.99-66.715 0-3.285-0.14-6.515-0.42-9.675 24.46-5.535 42.555-15.945 46.88-28.025 12.165 10.935 19.39 24.16 19.39 38.235 0 34.85-44.295 64.525-98.315 67.07zm28.055-98.075c0.225 0.85 0.47 1.695 0.74 2.525-0.235-0.85-0.48-1.695-0.74-2.525z" fill="#ccc" stroke-width=".5"/>
  <g transform="matrix(.5 0 0 .5 53.153 -26.034)" fill="#8c8c8c">
   <path d="m131.26 176.48c10 7.4 27.66 16.17 52.1 22.55-42.36-1.7-65.027-14.03-72.193-20.863-7.167-6.833-4.673-17.897 2.667-23.287 16.64-12.22 36.417-19.63 93.607-27.48-0.63 0.1-1.26 0.21-1.87 0.31-36.06 6.05-61.44 17.75-74.27 27.17-7.341 5.39-7.361 16.18-0.041 21.6z"/>
   <path d="m256 90c-4.192 0-8.359 0.072-12.5 0.209 131.43 4.35 236 76.912 236 165.79s-104.57 161.44-236 165.79c4.141 0.137 8.308 0.209 12.5 0.209 137.24 0 248.5-74.32 248.5-166s-111.26-166-248.5-166z"/>
   <path d="m335.14 235.58c0.56 6.32 0.84 12.78 0.84 19.35 0 73.69-35.81 133.43-79.98 133.43-4.25 0-8.43-0.56-12.5-1.63 38.23-10.01 66.58-45.22 66.58-111.81 0-0.07 0.9-20.12 0.9-20.19-0.01-11.02 13.29-17.28 24.16-19.15z"/>
   <path d="m328.64 199.04c-0.726 0.28-1.543 0.509-2.426 0.693-11.411 2.388-22.965-3.947-27.359-14.746-12.645-31.081-36.141-53.704-58.355-60.978 11.25-2.76 20.8-1.65 31 0 24.31 7.96 44.67 34.29 55.66 69.98 0.45 1.701 0.94 3.391 1.48 5.051z"/>
  </g>
  <g stroke-width=".5">
   <path d="m271.09 40.158c-24.078-16.084-56.019-24.942-89.94-24.942-23.548 0-46.556 4.349-66.537 12.576-1.915 0.7885-2.828 2.98-2.0395 4.8955s2.9795 2.829 4.8955 2.04c19.083-7.8585 41.104-12.012 63.681-12.012 66.444 0 120.5 35.552 120.5 79.25 0 43.698-54.056 79.25-120.5 79.25s-120.5-35.552-120.5-79.25c0-23.189 15.48-45.174 42.473-60.317 1.8065-1.0135 2.449-3.299 1.436-5.105-1.0135-1.8065-3.2995-2.4485-5.105-1.436-29.427 16.509-46.304 40.878-46.304 66.858 0 23.464 13.516 45.414 38.058 61.808 24.077 16.084 56.019 24.942 89.942 24.942 33.922 0 65.863-8.858 89.94-24.942 24.543-16.395 38.06-38.346 38.06-61.808 0-23.463-13.516-45.413-38.06-61.808z"/>
   <path d="m217.47 77.237c0.313 0 0.6315-0.0395 0.948-0.1225 11.028-2.8745 20.978-7.185 27.302-11.828 2.7205-2.001 4.2825-5.07 4.2865-8.4195 4e-3 -3.3455-1.549-6.413-4.258-8.4155-9.445-6.9895-29.292-14.923-56.668-16.226-1.874-0.085-3.5265 1.2215-3.866 3.067-0.34 1.8455 0.7375 3.6585 2.521 4.2425 11.328 3.7095 21.094 16.776 26.123 34.952 0.459 1.6595 1.9655 2.751 3.6115 2.751zm23.818-22.756c1.061 0.784 1.2185 1.826 1.218 2.377-1e-3 0.942-0.4495 1.812-1.2285 2.3845-2.4205 1.7775-9.086 6.0535-21.264 9.646-3.67-11.452-9.213-20.948-15.916-27.57 13.39 2.1155 27.902 6.2895 37.19 13.163z"/>
   <path d="m173.23 32.225c-27.304 1.2955-47.162 9.1965-56.642 16.158-2.719 1.997-4.2825 5.062-4.289 8.4085-6e-3 3.3475 1.545 6.4195 4.258 8.428 6.3075 4.6675 16.27 9.001 27.334 11.889 0.3175 0.083 0.636 0.1225 0.9495 0.1225 1.646 0 3.1525-1.0915 3.612-2.751 5.0285-18.174 14.794-31.238 26.122-34.946 1.7835-0.5835 2.861-2.3965 2.5215-4.242-0.34-1.846-1.9965-3.152-3.866-3.0675zm-30.934 36.658c-12.21-3.608-18.865-7.9055-21.278-9.6905-0.7775-0.5755-1.222-1.445-1.22-2.3855 2e-3 -0.9395 0.4495-1.8065 1.2285-2.3785 9.3225-6.8455 23.82-11.004 37.185-13.112-6.7025 6.6205-12.246 16.118-15.916 27.566z"/>
   <path d="m98.228 62.467c-0.421-1.1765-1.4005-2.0655-2.612-2.3715-1.211-0.305-2.4955 0.011-3.425 0.8465-13.498 12.129-20.634 26.315-20.634 41.024 0 9.6645 3.0675 19.083 9.1175 27.994 5.7045 8.4025 13.789 15.962 24.028 22.468 20.846 13.245 47.996 20.539 76.449 20.539 28.45 0 55.599-7.294 76.445-20.54 10.24-6.5055 18.324-14.064 24.028-22.467 6.05-8.911 9.117-18.33 9.117-27.994 0-14.704-7.135-28.89-20.634-41.024-0.929-0.835-2.2125-1.1525-3.425-0.847-1.2115 0.306-2.191 1.1955-2.6125 2.3715-2.391 6.6785-10.266 13.264-22.174 18.542-1.8935 0.8395-2.748 3.0545-1.9085 4.948s3.054 2.748 4.948 1.9085c11.306-5.0115 19.388-11.133 23.732-17.912 9.554 9.8305 14.574 20.818 14.574 32.013 0 16.302-10.536 31.975-29.667 44.13-14.708 9.345-32.81 15.549-52.32 18.081 4.1885-3.4615 8.032-8.041 11.391-13.644 7.897-13.175 12.246-30.614 12.246-49.102 0-2.273-0.066-4.537-0.1965-6.7645 1.7965-0.4465 3.5655-0.9215 5.287-1.419 1.9895-0.5755 3.136-2.6545 2.561-4.6445-0.5755-1.9895-2.6545-3.1365-4.6445-2.5605-2.5775 0.745-5.271 1.437-8.005 2.0555-1.831 0.4145-3.073 2.1185-2.9075 3.9885 0.269 3.0345 0.4055 6.1785 0.4055 9.344 0 17.15-3.97 33.219-11.18 45.246-6.849 11.427-15.749 17.72-25.06 17.72-13.149 0-25.325-12.593-31.776-32.865-0.628-1.9735-2.737-3.064-4.7105-2.4365-1.9735 0.628-3.064 2.737-2.4365 4.7105 4.2475 13.346 10.894 23.82 18.874 30.38-19.533-2.527-37.656-8.734-52.378-18.088-19.131-12.156-29.668-27.828-29.668-44.13 0-11.204 5.023-22.196 14.584-32.026 6.7675 10.46 22.576 19.41 43.961 24.728-0.1305 2.228-0.1965 4.492-0.1965 6.764 0 5.6915 0.417 11.354 1.2395 16.83 0.308 2.0485 2.2185 3.4585 4.2655 3.1515 2.048-0.308 3.459-2.2175 3.1515-4.2655-0.7675-5.1085-1.1565-10.396-1.1565-15.716 0-3.164 0.1365-6.3075 0.4055-9.344 0.166-1.87-1.0765-3.574-2.9075-3.9885-23.492-5.3165-40.42-15.138-44.177-25.632z"/>
   <path d="m159.38 75.775c-0.3165 1.0615-0.1475 2.208 0.461 3.1335 0.609 0.925 1.5955 1.5335 2.6955 1.6625 5.997 0.704 12.26 1.061 18.612 1.061 6.3495 0 12.61-0.357 18.607-1.061 1.1-0.129 2.0865-0.7375 2.6955-1.6625 0.6085-0.9255 0.7775-2.072 0.461-3.1335-4.728-15.858-13.474-26.514-21.763-26.514-8.2915 0-17.04 10.655-21.769 26.514zm34.887-2.188c-4.2795 0.362-8.674 0.5445-13.118 0.5445-4.4465 0-8.843-0.183-13.123-0.5445 4.158-11.006 10.037-16.826 13.123-16.826 3.084 0 8.96 5.8195 13.118 16.826z"/>
   <path d="m204.91 91.928c-0.786-0.6545-1.806-0.958-2.822-0.8435-13.67 1.5545-28.202 1.554-41.868 0-1.0135-0.1135-2.0355 0.189-2.822 0.8435s-1.2715 1.601-1.343 2.6215c-0.1585 2.2705-0.239 4.5855-0.239 6.8815 0 13.668 2.8345 26.748 7.982 36.828 4.9045 9.604 11.394 15.338 17.358 15.338 11.959 0 25.335-22.309 25.335-52.165 0-2.296-0.0805-4.6115-0.239-6.8815-0.0705-1.0205-0.5555-1.9675-1.342-2.6215zm-13.079 42.919c-4.214 8.253-8.692 11.248-10.674 11.248-5.449 0-17.84-16.874-17.84-44.665 0-0.827 0.011-1.6565 0.0335-2.4855 11.706 1.0755 23.897 1.076 35.608 0 0.0225 0.8285 0.0335 1.658 0.0335 2.4855 5e-4 12.505-2.543 24.372-7.1605 33.416z"/>
  </g>
 </g>
</svg>
