<?xml version="1.0" encoding="UTF-8"?>
<svg id="lean" width="512" height="512" enable-background="new 0 0 256 256" version="1.1" viewBox="0 0 256 256" xmlns="http://www.w3.org/2000/svg" xmlns:cc="http://creativecommons.org/ns#" xmlns:dc="http://purl.org/dc/elements/1.1/" xmlns:rdf="http://www.w3.org/1999/02/22-rdf-syntax-ns#">
 <metadata>
  <rdf:RDF>
   <cc:Work rdf:about="">
    <dc:format>image/svg+xml</dc:format>
    <dc:type rdf:resource="http://purl.org/dc/dcmitype/StillImage"/>
    <dc:title/>
   </cc:Work>
  </rdf:RDF>
 </metadata>
 <g transform="matrix(.98516 0 0 .98516 .44942 3.7791)">
  <rect x="3.0101" y="-.3748" width="252.76" height="252.76" ry="38.886" fill="#fff" fill-rule="evenodd" stroke="#3a312a" stroke-width="6.0848"/>
  <g transform="matrix(.82322 0 0 .82322 6.8786 84.903)">
   <g transform="matrix(.50753 0 0 .50753 12.485 -85.294)" fill="#cca75e">
    <path d="m396.16 451.8-2.967 15.042c-0.386 1.958-2.093 3.365-4.081 3.365h-44.196c-2.509 0-4.467-2.167-4.227-4.656l2.416-25.034 12.41-128.49 49.948-6.752-25.377 128.74c-0.104 0.501-0.125 1-0.042 1.49 0.145 1.104 0.739 2.104 1.666 2.782l12.817 9.334c1.31 0.947 1.956 2.582 1.633 4.177z"/>
    <path d="m261.06 470.2h-35.596c-1.531 0-2.936-0.823-3.685-2.146l-13.774-24.221-19.771-34.763c-0.166-0.292-0.292-0.614-0.386-0.937l-9.984-35.148-9.505-38.139 73.201-13.803-15.148 73.203c-0.156 0.729-0.115 1.48 0.125 2.188l12.368 37.628c0.021 0.073 0.052 0.146 0.084 0.218 0.365 0.958 1.072 1.74 1.968 2.219l18.022 9.459c1.072 0.562 1.843 1.552 2.145 2.729l4.05 16.23c0.676 2.689-1.354 5.283-4.114 5.283z"/>
   </g>
   <g transform="matrix(.50753 0 0 .50753 12.485 -85.294)" fill="#f2e5cb">
    <path d="m261.06 470.2h-35.596c-1.531 0-2.936-0.823-3.685-2.146l-13.774-24.221 30.984-9.552c0.365 0.958 1.072 1.74 1.968 2.219l18.022 9.459c1.072 0.562 1.843 1.552 2.145 2.729l4.05 16.23c0.676 2.688-1.354 5.282-4.114 5.282z"/>
    <path d="m396.16 451.8-2.967 15.042c-0.386 1.958-2.093 3.365-4.081 3.365h-44.196c-2.509 0-4.467-2.167-4.227-4.656l2.416-25.034 36.939-5.01c0.145 1.104 0.739 2.104 1.666 2.782l12.817 9.334c1.31 0.947 1.956 2.582 1.633 4.177z"/>
   </g>
   <path d="m87.17 56.914h-13.549c-31.517 0-57.159-25.656-57.159-57.193 0-31.536 25.641-57.193 57.159-57.193h45.976c3.2979 0 5.9716 2.6757 5.9716 5.9747 0 3.3-2.6732 5.9747-5.9716 5.9747h-45.976c-24.932 0-45.216 20.296-45.216 45.243 0 24.947 20.284 45.243 45.216 45.243h13.549c3.2979 0 5.9716 2.6757 5.9716 5.9747s-2.6737 5.9757-5.9716 5.9757z" fill="#cca75e" stroke-width=".50753"/>
   <path d="m268.36-32.761v10.649c0 8.6179-6.9791 15.602-15.591 15.602h-8.5752l-6.3903 56.644c-0.54611 4.8576-0.50906 9.7573 0.10607 14.61l1.6332 11.402 8.0875 56.357c0.0213 0.15885 0.0584 0.31263 0.11115 0.45576 0.16952 0.46134 0.48774 0.85925 0.91762 1.1191l10.331 6.0934c0.6471 0.38674 1.0445 1.0922 1.0445 1.8449l-1.379 9.1746c0 1.1932-0.96533 2.1585-2.153 2.1585h-22.687c-0.99172 0-1.8616-0.68923-2.0895-1.6546l-3.1609-13.194s-7.1328-27.698-12.468-52.045c0 0-0.0264 5e-3 -0.0797 0.0152-37.107 6.9476-58.457-2.2215-58.457-2.2215s-40.315 4.953-41.137 5.557l-12.595 16.536c-5.2291 6.873-13.369 10.908-22.003 10.908h-12.171c-1.1881 0-2.1529 0.96532-2.1529 2.1534v17.246c0 0.22281 0.03705 0.44562 0.10607 0.65218 0.13247 0.4243 0.3979 0.80088 0.75318 1.0714l4.99 3.739c0.3979 0.29741 0.67857 0.7212 0.7953 1.2044l1.8403 7.3556c0.33954 1.3622-0.68415 2.6782-2.0895 2.6782h-17.701c-1.1881 0-2.1529-0.96533-2.1529-2.153v-46.047c0-0.83235 0.48266-1.5967 1.2358-1.9464l14.753-6.9212c0.75825-0.35527 1.2409-1.1186 1.2409-1.9514v-29.348c0-17.548 13.046-32.361 30.44-34.566l68.029-8.629c9.9806-1.2673 18.45-7.9439 22.019-17.357l20.2-53.318 25.211-1.957c6.2842-0.48774 12.362 2.4128 15.92 7.6262 1.2993 1.9037 2.1423 3.3198 2.1423 3.3198 1.1668-0.0015 13.125 5.9706 13.125 7.1364z" fill="#fbd476" stroke-width=".50753"/>
   <g transform="matrix(.50753 0 0 .50753 12.485 -85.294)" fill="#cca75e">
    <path d="m412.98 70.187-19.944 1.549-39.796 105.05c-5.004 13.211-14.91 23.679-27.3 29.516l3.942-0.501c19.669-2.495 36.356-10.467 43.384-29.017 2e-3 2e-3 39.766-106.08 39.714-106.6z"/>
    <path d="m452.01 466.94-6.225-25.992s-14.055-54.581-24.562-102.55c-6.72 1.261-13.176 2.252-19.364 3.015 10.426 47.21 23.899 99.534 23.899 99.534l6.225 25.992c0.447 1.906 2.165 3.26 4.123 3.26h20.028c-1.959-1e-3 -3.677-1.355-4.124-3.261z"/>
    <path d="m101.92 465.96v-90.725c0-1.647 0.948-3.147 2.436-3.845l29.068-13.636c1.489-0.698 2.447-2.198 2.447-3.844v-57.817c0-28.624 17.624-57.089 43.134-68.513l-3.183 0.403c-34.274 4.345-59.979 33.535-59.979 68.111v57.817c0 1.645-0.958 3.146-2.446 3.844l-29.068 13.636c-1.489 0.698-2.437 2.198-2.437 3.845v90.725c0 2.342 1.898 4.24 4.237 4.24h20.028c-2.339-2e-3 -4.237-1.9-4.237-4.241z"/>
   </g>
   <g transform="matrix(.50753 0 0 .50753 12.485 -85.294)" fill="#f2e5cb">
    <path d="m121.02 470.2h-34.888c-2.343 0-4.237-1.906-4.237-4.251v-23.971l26.725-3.396c0.26 0.834 0.781 1.573 1.489 2.104l9.828 7.376c0.781 0.583 1.343 1.417 1.573 2.365l3.623 14.491c0.665 2.688-1.355 5.282-4.113 5.282z"/>
    <path d="m444.16 295.62 3.218 22.465c-16.886 5.057-35.119 11.933-46.195 20.313 0 0-0.052 0.01-0.157 0.03-73.112 13.689-115.18-4.377-115.18-4.377s-79.433 9.759-81.053 10.949l31.848-26.311s62.192-11.713 95.629-9.78c16.076 0.934 34.438 0.729 49.17 0.263 16.271-0.514 30.126-11.963 33.72-27.841 7.869-34.769 20.685-94.104 22.122-117.81 0 0 8.213-8.296 19.257-8.296l-12.591 111.61c-1.074 9.573-1.001 19.226 0.211 28.787z"/>
    <path d="m431.98 466.94-6.225-25.992 37.782-10.928c0.333 0.916 0.969 1.698 1.812 2.209l20.354 12.001c1.271 0.771 2.062 2.157 2.062 3.646l-2.718 18.075c0 2.344-1.905 4.251-4.247 4.251h-44.695c-1.959-2e-3 -3.677-1.356-4.125-3.262"/>
   </g>
   <g stroke-width=".50753">
    <path d="m225.66-61.277 2.1428 10.267c1.3779 6.602-3.5395 13.605-11.334 16.143l-2.9412 0.9572c-2.5828 0.84047-5.1083-0.99882-4.8002-3.4959l1.7571-14.223c1.044-11.247 13.097-15.912 15.176-9.6482z" fill="#cca75e"/>
    <path d="m264.08-40.292c-2.998-1.5673-4.9413-2.4488-6.234-2.9452-0.37963-0.59736-0.87853-1.3627-1.4662-2.2235-4.343-6.3634-11.816-9.943-19.513-9.3492l-5.7016 0.44206-1.6114-7.7221c-0.0315-0.14921-0.0705-0.29589-0.11876-0.44003-1.2622-3.8029-4.818-5.9457-9.0584-5.46-3.1594 0.36238-6.4269 2.1342-8.964 4.8627-1.9464 2.0926-4.3688 5.7087-4.8819 11.068l-1.1531 9.3335-17.333 45.747c-3.0553 8.0576-10.259 13.737-18.8 14.821-2.1788 0.2761-3.7217 2.2676-3.4451 4.4465 0.25529 2.0093 1.9677 3.4771 3.941 3.4771 0.16697 0 0.33598-0.01066 0.506-0.03248 11.467-1.4556 21.136-9.0787 25.237-19.894l13.712-36.187c0.9572 0.40907 1.9895 0.62426 3.0442 0.62426 0.83793 0 1.6891-0.13246 2.5219-0.40399l2.9406-0.9572c7.7444-2.5209 13.124-8.6336 14.137-15.357l5.6448-0.438c4.8606-0.3776 9.5837 1.8834 12.327 5.9031 1.2049 1.7652 2.0032 3.1 2.0098 3.1117 0.60498 1.0156 1.6226 1.6992 2.7666 1.8895 1.6804 0.55016 7.3678 3.4304 9.7994 4.9779v8.8853c0 6.4101-5.2098 11.624-11.614 11.624h-8.5752c-2.024 0-3.7253 1.5201-3.9526 3.5314l-3.8288 33.951c-0.24615 2.1829 1.3242 4.1516 3.5065 4.3983 0.15176 0.01675 0.30198 0.02538 0.45069 0.02538 1.9971-5.07e-4 3.7187-1.5008 3.9476-3.5319l3.4304-30.419h5.021c10.791 0 19.569-8.7833 19.569-19.58v-10.65c-2e-3 -2.5818-1.6231-4.0608-8.2621-7.5297zm-48.842 1.6434-2.4463 0.79276 0.40552-3.2817c5.1e-4 -0.0041 5.1e-4 -0.0086 2e-3 -0.01218l1.2338-9.9907c5e-3 -0.04009 0.01-0.08019 0.0127-0.12079 0.38471-4.1445 2.7584-6.905 4.8515-8.1063 1.0242-0.58721 1.8398-0.73694 2.2885-0.73694 0.10962 0 0.19743 0.0091 0.26087 0.02284l2.0636 9.8857c0.95669 4.581-2.8523 9.6527-8.6717 11.547z"/>
    <path d="m261.01 136.74-9.5634-5.6382-9.5934-66.895c-0.57402-4.517-0.60751-9.1041-0.0995-13.634 0.24463-2.1829-1.3267-4.1506-3.5096-4.3952-2.1763-0.24716-4.1506 1.3262-4.3952 3.5096-0.57909 5.1682-0.5395 10.401 0.11826 15.555 3e-3 0.0203 5e-3 0.0406 9e-3 0.0609l9.2934 64.804-11.863 3.4319c-2.1565-8.5265-7.3455-29.326-11.422-47.935-0.45982-2.1007-2.5077-3.4578-4.6185-3.0579-0.41262 0.0777-0.82017 0.15023-1.2287 0.22382-0.0162 3e-3 -0.0335 6e-3 -0.0497 9e-3 -17.847 3.1959-31.7 2.4854-40.25 1.3003-9.4786-1.313-14.666-3.4725-14.706-3.4893-0.64659-0.27661-1.3551-0.37761-2.0545-0.29336-0.101 0.0122-10.207 1.2556-20.283 2.5564-21.382 2.7605-21.639 2.9503-22.723 3.7466-0.30604 0.22534-0.57757 0.49281-0.80748 0.79429l-12.595 16.538c-4.4526 5.8457-11.496 9.3355-18.841 9.3355h-12.169c-3.3817 0-6.133 2.7518-6.133 6.1345v14.406l-5.5037 0.69937v-28.205l13.7-6.4263c2.1448-1.0054 3.5309-3.1853 3.5309-5.5524v-29.344c0-15.509 11.592-28.673 26.965-30.622l45.414-5.76c2.1788-0.2761 3.7222-2.2666 3.4456-4.446-0.27609-2.1788-2.2651-3.7212-4.446-3.4456l-45.414 5.7601c-10.422 1.3211-19.458 6.7451-25.579 14.515h-2.02c-22.738 0-41.237-18.511-41.237-41.264 0-22.753 18.499-41.264 41.237-41.264 2.1966 0 3.9775-1.7804 3.9775-3.9775 0-2.1971-1.7809-3.9775-3.9775-3.9775-27.124 0-49.192 22.079-49.192 49.219 0 26.201 20.569 47.685 46.4 49.138-0.58112 1.2663-1.1029 2.5646-1.547 3.8973-12.758-1.0293-24.618-6.5898-33.67-15.853-9.7837-10.012-15.172-23.216-15.172-37.182 0-29.344 23.856-53.217 53.18-53.217h45.979c1.0993 0 1.9941 0.89681 1.9941 1.9997 0 1.1018-0.89478 1.9992-1.9941 1.9992h-20.937c-2.1966 0-3.9775 1.7804-3.9775 3.9775s1.7809 3.9775 3.9775 3.9775h20.937c5.4854 0 9.9486-4.4653 9.9486-9.9542 0-5.4895-4.4632-9.9542-9.9486-9.9542h-45.979c-33.711-5.08e-4 -61.136 27.442-61.136 61.172 0 16.055 6.1919 31.235 17.436 42.743 10.149 10.387 23.375 16.726 37.637 18.128-0.16444 1.4449-0.25884 2.9087-0.25884 4.3927v28.185l-13.705 6.4289c-2.1418 1.0044-3.5253 3.1832-3.5253 5.5529v46.046c0 3.3796 2.7493 6.1294 6.1279 6.1294h17.707c1.8977 0 3.6563-0.85722 4.8246-2.3514 1.1714-1.4977 1.581-3.4157 1.1206-5.2712l-1.8312-7.3242c-0.33193-1.3749-1.144-2.6011-2.2768-3.4472l-4.2597-3.1964v-14.511h10.347c7.1917 0 14.161-2.5123 19.715-6.9248l2.4554 8.6524c0.13957 0.48266 0.32938 0.93538 0.5593 1.3389l11.223 19.73 5.7996 10.198c0.13044 0.22991 0.27559 0.44815 0.43242 0.65624 5e-3 8e-3 0.0102 0.0157 0.0152 0.0239 0.0756 0.0995 0.16444 0.18829 0.24616 0.2832 1.149 1.3374 2.8335 2.1428 4.6368 2.1428h18.069c0.23752 0 0.47302-0.0132 0.70547-0.0396 0.1416-0.0157 0.28015-0.0462 0.41871-0.0721 0.0893-0.0162 0.17967-0.0259 0.26798-0.0462 0.14921-0.034 0.29335-0.0822 0.4385-0.12739 0.0741-0.0234 0.15125-0.0396 0.22484-0.066 0.12231-0.0431 0.23905-0.099 0.35832-0.15023 0.0919-0.0391 0.18677-0.0721 0.27609-0.11623 0.0842-0.0406 0.16343-0.0929 0.24565-0.13754 0.11927-0.0655 0.24057-0.12637 0.35527-0.19996 0.0472-0.0299 0.0898-0.0665 0.13602-0.0974 0.14464-0.0985 0.28878-0.19692 0.42582-0.30756 0.0147-0.0112 0.0274-0.0259 0.0421-0.0376 0.34106-0.28168 0.65624-0.60092 0.93538-0.95822 0.44054-0.56387 0.77246-1.1876 0.99172-1.8444 9e-3 -0.0269 0.0137-0.0553 0.0223-0.0822 0.0609-0.19083 0.11622-0.38471 0.15733-0.58061 0.0147-0.07 0.0203-0.1416 0.0325-0.21114 0.0269-0.1553 0.0563-0.3106 0.0711-0.46794 9e-3 -0.0898 6e-3 -0.17967 0.0107-0.2695 7e-3 -0.14058 0.0188-0.28066 0.0157-0.42176-1e-3 -0.0513-9e-3 -0.10252-0.0112-0.15378-0.0183-0.41059-0.0705-0.82372-0.17257-1.2323l-2.0662-8.2753c-0.0528-0.20453-0.11674-0.405-0.18982-0.60142l-3e-3 -9e-3c-0.0431-0.11521-0.0964-0.22534-0.14566-0.337-0.50601-1.1455-1.3495-2.1134-2.423-2.7671-0.10861-0.0665-0.2152-0.13652-0.32888-0.19641l-4.7287-2.4813-3.7552-1.9707-5.9006-17.943 5.0078-24.202c6.909-0.8963 14.525-1.8545 20.66-2.6112 3.2314 1.1902 13.564 4.4668 29.94 4.7256l-5.56 57.562c-0.16495 1.7175 0.40602 3.436 1.5672 4.7134 0.69837 0.76891 1.5789 1.3363 2.5432 1.6688 0.63695 0.21976 1.3099 0.34055 1.9961 0.34055h22.434c0.79022 0 1.5495-0.15835 2.2509-0.44003 1.8702-0.75114 3.3121-2.4052 3.7202-4.4754l1.5048-7.6297c0.0812-0.40704 0.11724-0.8156 0.1147-1.2216 0-0.0254 2e-3 -0.0513 1e-3 -0.0766-2e-3 -0.0776-8e-3 -0.1548-0.0122-0.23245-4e-3 -0.0695-5e-3 -0.13957-0.0117-0.20859-3e-3 -0.0264-7e-3 -0.0523-0.01-0.0782-0.15582-1.5064-0.87042-2.9168-2.0195-3.9278-0.14465-0.12739-0.29335-0.25122-0.4517-0.36491l-5.5473-4.0404 6.2467-31.699c4.3602 18.659 8.692 35.543 8.9422 36.518l3.1543 13.169c0.0284 0.11977 0.0644 0.23549 0.0995 0.35273 0.0147 0.0492 0.0259 0.0995 0.0421 0.1482 0.035 0.1076 0.0777 0.21113 0.11825 0.31619 0.0223 0.0573 0.0411 0.11775 0.066 0.17459 0.0396 0.0939 0.0858 0.18373 0.12993 0.27458 0.031 0.0634 0.0589 0.12992 0.0919 0.19235 0.0431 0.0807 0.0914 0.15733 0.13754 0.236 0.0401 0.069 0.0782 0.13957 0.12029 0.20606 0.0447 0.07 0.0944 0.135 0.1416 0.2025 0.0497 0.0716 0.0969 0.14465 0.15023 0.21368 0.0462 0.0599 0.0969 0.11622 0.14515 0.17459 0.0589 0.0716 0.11623 0.14464 0.17815 0.21316 0.0477 0.0528 0.0995 0.101 0.14972 0.15226 0.0675 0.0695 0.13297 0.14109 0.20403 0.20707 0.0482 0.0457 0.10099 0.0858 0.15073 0.12942 0.0761 0.067 0.15125 0.13602 0.23093 0.19845 0.0497 0.0391 0.10303 0.0741 0.15378 0.11165 0.0837 0.0619 0.16596 0.12587 0.25275 0.18373 0.0558 0.037 0.1147 0.069 0.17104 0.10404 0.0858 0.0538 0.17053 0.10811 0.25935 0.15683 0.0584 0.0325 0.11927 0.0589 0.17814 0.0893 0.0914 0.0467 0.18068 0.0949 0.27407 0.13703 0.0579 0.0259 0.11825 0.0462 0.17713 0.0705 0.0974 0.0396 0.19438 0.0822 0.29436 0.11723 0.0685 0.0244 0.13958 0.0426 0.20961 0.064 0.0934 0.0284 0.18525 0.0604 0.28016 0.0848 0.0766 0.0198 0.15531 0.0335 0.23347 0.0503 0.0908 0.0198 0.17966 0.0426 0.27203 0.0584 0.11166 0.0188 0.22636 0.0305 0.34056 0.0437 0.0594 7e-3 0.11774 0.0173 0.17763 0.0223 0.1751 0.0147 0.35223 0.0228 0.53037 0.0228h22.684c0.20352 0 0.4045-0.0101 0.60345-0.0299 2.9782-0.29234 5.3382-2.7244 5.5189-5.7336l1.346-8.9534c0.0289-0.19591 0.0442-0.39334 0.0442-0.59128 3e-3 -2.1276-1.1323-4.1394-3.0005-5.2722zm-202.99 12.629v-6.8415l7.9175-1.0059c0.01218 0.0102 0.02487 0.0193 0.03705 0.0284l4.4724 3.3558 1.1156 4.4637h-13.542zm69.953 0-3.7253-6.5492-0.29285-0.51463 8.7128-2.6859c0.067 0.0396 0.13501 0.0777 0.20403 0.11521 0.0183 0.0101 0.035 0.0218 0.0538 0.032l6.6482 3.4872 1.7733 0.93132 1.2932 5.1844h-14.667zm-4.2973-32.221 5.051 15.362-8.8001 2.7138-8.3398-14.662-3.6877-12.997 10.809-14.194c1.7236-0.29285 5.1063-0.77297 9.3325-1.3434l-4.5388 21.934c-0.23143 1.0795-0.16596 2.1976 0.17358 3.1863zm78.209 15.045-10.824 1.4683 3.9344-40.742c4.6013-0.19997 9.5715-0.63949 14.906-1.4079zm-12.34 17.176 0.73085-7.5729 13.159-1.785c0.14008 0.12231 0.28523 0.24006 0.43648 0.3507l3.135 2.2834 2.4077 1.7545-0.98055 4.9702h-18.888zm65.363 0h-19.651l-1.9408-8.1032 13.225-3.8253c0.0325 0.0208 0.065 0.0401 0.0975 0.0604l9.235 5.4448z"/>
    <circle cx="242.91" cy="-37.634" r="3.9775"/>
    <circle cx="212.68" cy="-8.6148" r="3.9775"/>
    <circle cx="224.06" cy="11.537" r="3.9775"/>
    <circle cx="197.85" cy="19.492" r="3.9775"/>
    <circle cx="171.85" cy="36.197" r="3.9775"/>
    <circle cx="134.19" cy="40.174" r="3.9775"/>
    <circle cx="115.63" cy="60.883" r="3.9775"/>
    <circle cx="88.32" cy="70.959" r="3.9775"/>
    <circle cx="212.68" cy="40.174" r="3.9775"/>
    <circle cx="197.85" cy="58.736" r="3.9775"/>
    <circle cx="159.38" cy="58.736" r="3.9775"/>
   </g>
  </g>
 </g>
</svg>
