<?xml version="1.0" encoding="UTF-8" standalone="no"?>
<svg
   xmlns:dc="http://purl.org/dc/elements/1.1/"
   xmlns:cc="http://creativecommons.org/ns#"
   xmlns:rdf="http://www.w3.org/1999/02/22-rdf-syntax-ns#"
   xmlns:svg="http://www.w3.org/2000/svg"
   xmlns="http://www.w3.org/2000/svg"
   xmlns:sodipodi="http://sodipodi.sourceforge.net/DTD/sodipodi-0.dtd"
   xmlns:inkscape="http://www.inkscape.org/namespaces/inkscape"
   id="lean"
   enable-background="new 0 0 256 256"
   height="512"
   viewBox="0 0 256 256"
   width="512"
   version="1.1"
   sodipodi:docname="manifesto-ágil.svg"
   inkscape:version="0.92.4 (5da689c313, 2019-01-14)">
  <metadata
     id="metadata21">
    <rdf:RDF>
      <cc:Work
         rdf:about="">
        <dc:format>image/svg+xml</dc:format>
        <dc:type
           rdf:resource="http://purl.org/dc/dcmitype/StillImage" />
        <dc:title></dc:title>
      </cc:Work>
    </rdf:RDF>
  </metadata>
  <defs
     id="defs19" />
  <sodipodi:namedview
     pagecolor="#ffffff"
     bordercolor="#666666"
     borderopacity="1"
     objecttolerance="10"
     gridtolerance="10"
     guidetolerance="10"
     inkscape:pageopacity="0"
     inkscape:pageshadow="2"
     inkscape:window-width="1920"
     inkscape:window-height="986"
     id="namedview17"
     showgrid="false"
     inkscape:zoom="1.3037281"
     inkscape:cx="128.95314"
     inkscape:cy="261.57083"
     inkscape:window-x="-11"
     inkscape:window-y="-11"
     inkscape:window-maximized="1"
     inkscape:current-layer="g858" />
  <g
     id="g858"
     inkscape:transform-center-x="-122.79306"
     inkscape:transform-center-y="-126.94913"
     transform="matrix(0.98516163,0,0,0.98516163,0.44941633,3.7790961)">
    <rect
       ry="38.885532"
       y="-0.37479836"
       x="3.010077"
       height="252.75597"
       width="252.75597"
       id="rect831"
       style="fill:#ffffff;fill-rule:evenodd;stroke:#3a312a;stroke-width:6.08481216;stroke-miterlimit:4;stroke-dasharray:none;stroke-opacity:1;fill-opacity:1" />
    <g
       transform="matrix(0.39728222,0,0,0.39728222,25.2212,25.265274)"
       id="g14">
      <path
         style="fill:#ffc697"
         inkscape:connector-curvature="0"
         d="m 78.852,443.15 c -16.913,0 -30.624,13.731 -30.624,30.669 0,16.938 13.711,30.669 30.624,30.669 h 30.507 l 37.197,-61.339 H 78.852 Z"
         id="path2" />
      <path
         style="fill:#fff7d7"
         inkscape:connector-curvature="0"
         d="m 433.15,7.509 v 466.306 c 0,16.945 -13.71,30.676 -30.63,30.676 H 78.85 c 15,0 27.47,-10.786 30.11,-25.037 0.34,-1.823 0.52,-3.716 0.52,-5.638 V 38.185 c 0,-16.945 13.71,-30.676 30.62,-30.676 z"
         id="path4" />
      <path
         style="fill:#ffe5b6"
         inkscape:connector-curvature="0"
         d="m 409.15,7.509 h 24 v 466.306 c 0,16.945 -13.71,30.676 -30.63,30.676 H 78.85 c 15,0 27.47,-10.786 30.11,-25.037 h 269.56 c 16.92,0 30.63,-13.731 30.63,-30.676 z"
         id="path6" />
      <path
         style="fill:#ffc697"
         inkscape:connector-curvature="0"
         d="M 433.148,7.511 H 140.099 c 16.913,0 30.624,13.731 30.624,30.669 0,16.938 -13.711,30.67 -30.624,30.67 h 293.048 c 16.913,0 30.624,-13.731 30.624,-30.669 0,-16.938 -13.71,-30.67 -30.623,-30.67 z"
         id="path8" />
      <path
         style="fill:#ff394c"
         inkscape:connector-curvature="0"
         d="m 388.11,416.75 c 0,15.573 -12.6,28.202 -28.15,28.202 -3.78,0 -7.39,-0.741 -10.68,-2.103 -10.26,-4.216 -17.48,-14.311 -17.48,-26.099 0,-11.788 7.22,-21.883 17.48,-26.099 3.29,-1.362 6.9,-2.103 10.68,-2.103 15.55,0 28.15,12.629 28.15,28.202 z"
         id="path10" />
      <path
         style="fill:#e81a5a"
         inkscape:connector-curvature="0"
         d="m 388.11,416.75 c 0,15.573 -12.6,28.202 -28.15,28.202 -3.78,0 -7.39,-0.741 -10.68,-2.103 10.26,-4.206 17.48,-14.311 17.48,-26.099 0,-11.788 -7.22,-21.893 -17.48,-26.099 3.29,-1.362 6.9,-2.103 10.68,-2.103 15.55,0 28.15,12.629 28.15,28.202 z"
         id="path12" />
    </g>
    <g
       transform="matrix(0.39728222,0,0,0.39728222,25.2212,25.265274)"
       id="g40">
      <path
         inkscape:connector-curvature="0"
         d="M 471.271,38.18 C 471.271,17.127 454.168,0 433.147,0 H 140.1 C 119.079,0 101.976,17.128 101.976,38.18 V 435.639 H 78.853 c -21.021,0 -38.124,17.128 -38.124,38.18 0,21.052 17.102,38.181 38.124,38.181 h 82.243 c 4.143,0 7.5,-3.363 7.5,-7.511 0,-4.148 -3.357,-7.511 -7.5,-7.511 h -51.952 c 4.911,-6.428 7.832,-14.458 7.832,-23.158 V 38.18 c 0,-12.77 10.373,-23.158 23.124,-23.158 12.75,0 23.123,10.389 23.123,23.158 0,12.769 -10.373,23.159 -23.123,23.159 -4.143,0 -7.5,3.363 -7.5,7.511 0,4.148 3.357,7.511 7.5,7.511 h 204.762 c 4.143,0 7.5,-3.363 7.5,-7.511 0,-4.148 -3.357,-7.511 -7.5,-7.511 H 170.391 c 4.911,-6.428 7.832,-14.458 7.832,-23.158 0,-8.7 -2.921,-16.73 -7.832,-23.158 h 262.757 c 12.751,0 23.124,10.389 23.124,23.158 0,12.769 -10.373,23.158 -23.124,23.158 H 379.86 c -4.143,0 -7.5,3.363 -7.5,7.511 0,4.148 3.357,7.511 7.5,7.511 h 45.787 V 473.82 c 0,12.77 -10.373,23.158 -23.123,23.158 H 196.025 c -4.143,0 -7.5,3.363 -7.5,7.511 0,4.148 3.357,7.511 7.5,7.511 h 206.499 c 21.021,0 38.123,-17.128 38.123,-38.18 V 75.618 C 458.09,72.12 471.271,56.663 471.271,38.18 Z M 55.729,473.82 c 0,-12.77 10.373,-23.158 23.124,-23.158 h 23.123 v 23.158 c 0,12.77 -10.373,23.158 -23.123,23.158 -12.751,0 -23.124,-10.389 -23.124,-23.158 z"
         id="path16" />
      <path
         inkscape:connector-curvature="0"
         d="m 151.1,140.457 h 51.522 c 4.143,0 7.5,-3.363 7.5,-7.511 0,-4.148 -3.357,-7.511 -7.5,-7.511 H 151.1 c -4.143,0 -7.5,3.363 -7.5,7.511 0,4.148 3.357,7.511 7.5,7.511 z"
         id="path18" />
      <path
         inkscape:connector-curvature="0"
         d="m 151.1,175.509 h 237.016 c 4.143,0 7.5,-3.363 7.5,-7.511 0,-4.148 -3.357,-7.511 -7.5,-7.511 H 151.1 c -4.143,0 -7.5,3.363 -7.5,7.511 0,4.148 3.357,7.511 7.5,7.511 z"
         id="path20" />
      <path
         inkscape:connector-curvature="0"
         d="m 388.115,195.459 h -49.509 c -4.143,0 -7.5,3.363 -7.5,7.511 0,4.148 3.357,7.511 7.5,7.511 h 49.509 c 4.143,0 7.5,-3.363 7.5,-7.511 0,-4.149 -3.357,-7.511 -7.5,-7.511 z"
         id="path22" />
      <path
         inkscape:connector-curvature="0"
         d="m 151.1,210.481 h 152.91 c 4.143,0 7.5,-3.363 7.5,-7.511 0,-4.148 -3.357,-7.511 -7.5,-7.511 H 151.1 c -4.143,0 -7.5,3.363 -7.5,7.511 0,4.148 3.357,7.511 7.5,7.511 z"
         id="path24" />
      <path
         inkscape:connector-curvature="0"
         d="m 151.1,265.336 h 51.522 c 4.143,0 7.5,-3.363 7.5,-7.511 0,-4.148 -3.357,-7.511 -7.5,-7.511 H 151.1 c -4.143,0 -7.5,3.363 -7.5,7.511 0,4.148 3.357,7.511 7.5,7.511 z"
         id="path26" />
      <path
         inkscape:connector-curvature="0"
         d="m 151.1,300.388 h 237.016 c 4.143,0 7.5,-3.363 7.5,-7.511 0,-4.148 -3.357,-7.511 -7.5,-7.511 H 151.1 c -4.143,0 -7.5,3.363 -7.5,7.511 0,4.148 3.357,7.511 7.5,7.511 z"
         id="path28" />
      <path
         inkscape:connector-curvature="0"
         d="m 151.1,335.36 h 49.508 c 4.143,0 7.5,-3.363 7.5,-7.511 0,-4.148 -3.357,-7.511 -7.5,-7.511 H 151.1 c -4.143,0 -7.5,3.363 -7.5,7.511 0,4.148 3.357,7.511 7.5,7.511 z"
         id="path30" />
      <path
         inkscape:connector-curvature="0"
         d="m 388.115,320.338 h -152.91 c -4.143,0 -7.5,3.363 -7.5,7.511 0,4.148 3.357,7.511 7.5,7.511 h 152.91 c 4.143,0 7.5,-3.363 7.5,-7.511 0,-4.148 -3.357,-7.511 -7.5,-7.511 z"
         id="path32" />
      <path
         inkscape:connector-curvature="0"
         d="m 359.958,381.04 c -19.661,0 -35.656,16.019 -35.656,35.71 0,19.69 15.995,35.71 35.656,35.71 19.661,0 35.657,-16.019 35.657,-35.71 0,-19.691 -15.996,-35.71 -35.657,-35.71 z m 0,56.397 c -11.39,0 -20.656,-9.28 -20.656,-20.687 0,-11.407 9.267,-20.687 20.656,-20.687 11.391,0 20.657,9.28 20.657,20.687 0,11.407 -9.266,20.687 -20.657,20.687 z"
         id="path34" />
      <path
         inkscape:connector-curvature="0"
         d="m 151.1,406.77 h 63.508 c 4.143,0 7.5,-3.363 7.5,-7.511 0,-4.148 -3.357,-7.511 -7.5,-7.511 H 151.1 c -4.143,0 -7.5,3.363 -7.5,7.511 0,4.148 3.357,7.511 7.5,7.511 z"
         id="path36" />
      <path
         inkscape:connector-curvature="0"
         d="m 151.1,441.751 h 113.508 c 4.143,0 7.5,-3.363 7.5,-7.511 0,-4.148 -3.357,-7.511 -7.5,-7.511 H 151.1 c -4.143,0 -7.5,3.363 -7.5,7.511 0,4.148 3.357,7.511 7.5,7.511 z"
         id="path38" />
    </g>
  </g>
</svg>
